<?xml version="1.0" encoding="UTF-8" standalone="no"?>
<!-- Created with Inkscape (http://www.inkscape.org/) -->

<svg
   xmlns:osb="http://www.openswatchbook.org/uri/2009/osb"
   xmlns:dc="http://purl.org/dc/elements/1.1/"
   xmlns:cc="http://creativecommons.org/ns#"
   xmlns:rdf="http://www.w3.org/1999/02/22-rdf-syntax-ns#"
   xmlns:svg="http://www.w3.org/2000/svg"
   xmlns="http://www.w3.org/2000/svg"
   xmlns:xlink="http://www.w3.org/1999/xlink"
   xmlns:sodipodi="http://sodipodi.sourceforge.net/DTD/sodipodi-0.dtd"
   xmlns:inkscape="http://www.inkscape.org/namespaces/inkscape"
   width="210mm"
   height="297mm"
   viewBox="0 0 744.09448819 1052.3622047"
   id="svg2"
   version="1.1"
   inkscape:version="0.91 r13725"
   sodipodi:docname="drawing.svg">
  <sodipodi:namedview
     id="base"
     pagecolor="#ffffff"
     bordercolor="#666666"
     borderopacity="1.0"
     inkscape:pageopacity="0.0"
     inkscape:pageshadow="2"
     inkscape:zoom="0.7"
     inkscape:cx="435.02621"
     inkscape:cy="471.84962"
     inkscape:document-units="px"
     inkscape:current-layer="layer1"
     showgrid="false"
     inkscape:window-width="1366"
     inkscape:window-height="744"
     inkscape:window-x="0"
     inkscape:window-y="24"
     inkscape:window-maximized="1" />
  <defs
     id="defs4">
    <linearGradient
       id="linearGradient5653"
       osb:paint="solid">
      <stop
         style="stop-color:#000000;stop-opacity:1;"
         offset="0"
         id="stop5655" />
    </linearGradient>
    <linearGradient
       id="linearGradient5647"
       osb:paint="solid">
      <stop
         style="stop-color:#f6fbfa;stop-opacity:1;"
         offset="0"
         id="stop5649" />
    </linearGradient>
  </defs>
  <metadata
     id="metadata7">
    <rdf:RDF>
      <cc:Work
         rdf:about="">
        <dc:format>image/svg+xml</dc:format>
        <dc:type
           rdf:resource="http://purl.org/dc/dcmitype/StillImage" />
        <dc:title></dc:title>
      </cc:Work>
    </rdf:RDF>
  </metadata>
  <g
     id="layer1"
     inkscape:groupmode="layer"
     inkscape:label="Layer 1">
    <image
       inkscape:transform-center-y="15.714286"
       inkscape:transform-center-x="62.857143"
       width="601"
       height="477"
       preserveAspectRatio="none"
       xlink:href="/home/dave/none.png"
       id="image4146"
       x="-159.07144"
       y="569.57648"
       style="fill:#fbf9f6;fill-opacity:1" />
    <g
       id="g5747"
       transform="matrix(0.61946359,0.78502539,-0.78502539,0.61946359,597.39899,-144.52923)"
       inkscape:export-xdpi="78.5"
       inkscape:export-ydpi="78.5">
      <path
         style="fill:#cbc6b4"
         d="m 635.36654,740.17627 c -32.54292,-33.42407 -70.65731,-62.28372 -117.95248,-89.31186 -14.72548,-8.41529 -14.9378,-8.5872 -26.89677,-21.77794 -31.02,-34.21508 -67.08676,-61.35584 -113.94588,-85.74596 -7.90646,-4.11531 -12.61693,-7.57017 -22.5,-16.50251 -41.65577,-37.64853 -82.27304,-68.85454 -126.88439,-97.48453 -15.9112,-10.21125 -17.4635,-11.51215 -36.61561,-30.6855 -31.29739,-31.33211 -62.59746,-54.76671 -99.999999,-74.87077 -4.95,-2.66065 -9.8249,-5.68437 -10.83311,-6.71938 -2.144996,-2.20201 -2.365372,-1.82778 7.235482,-12.28705 3.534021,-3.85 9.023986,-11.05 12.199921,-16 7.649146,-11.92193 8.813926,-13.5 9.964426,-13.5 0.53534,0 7.8539,6.64763 16.26347,14.77251 31.95433,30.87259 66.95089,57.43049 101.01959,76.66089 12.8416,7.24856 14.03908,8.21444 30.75603,24.80744 34.4766,34.22099 78.89288,67.85944 122.47937,92.75916 13.85472,7.91481 15.87858,9.46968 29.39695,22.58478 38.14039,37.0026 71.6542,62.62198 112.46363,85.97197 11.34059,6.48877 12.83504,7.74338 29.5,24.76582 36.74142,37.52955 76.58833,67.38645 116.97035,87.64471 11.47615,5.75719 11.52284,5.81551 9.66553,12.06976 -2.00036,6.73594 -8.88247,16.90606 -17.01795,25.14847 -5.3227,5.39266 -11.25731,9.81449 -13.1722,9.81449 -0.16568,0 -5.60904,-5.45153 -12.09636,-12.1145 z"
         id="path5761"
         inkscape:connector-curvature="0" />
      <path
         style="fill:#c2bca6"
         d="m 630.04745,733.94188 c -33.63669,-33.01489 -68.26284,-58.86803 -111.81199,-83.48292 -15.12327,-8.54798 -15.47813,-8.82805 -25.58901,-20.19587 -29.92848,-33.64906 -70.13471,-64.2854 -113.07504,-86.16092 -10.60322,-5.4017 -13.62957,-7.58728 -26,-18.77673 -41.58639,-37.61623 -85.57698,-71.18625 -130.03223,-99.22996 -10.67697,-6.73535 -14.33765,-9.89154 -32.5,-28.02104 -22.21675,-22.17656 -39.33297,-36.46244 -61.96777,-51.72078 -13.4133,-9.04204 -32.896486,-20.83933 -43.899624,-26.58171 -8.269422,-4.3157 -8.301896,-3.51676 0.516294,-12.70199 8.449011,-8.80069 14.37756,-16.86074 18.72588,-25.45842 1.44068,-2.84858 3.07792,-5.4626 3.63831,-5.80894 0.56039,-0.34634 3.15645,1.57328 5.76901,4.26581 34.07706,35.12013 77.20629,68.09686 120.25013,91.94357 3.56729,1.97631 11.47385,8.99949 22.5,19.98612 34.29209,34.16918 76.26824,66.04528 121.56192,92.3124 15.76419,9.14212 16.93743,10.05283 32.89268,25.53248 36.56779,35.47778 68.9829,60.031 111.64304,84.56539 9.84999,5.66486 12.29562,7.67137 21.75344,17.84754 35.00265,37.66117 81.2848,72.75609 124.71072,94.5659 4.83177,2.42666 9.05226,4.8445 9.37888,5.37298 0.79456,1.28562 -3.51912,10.88391 -7.55817,16.81755 -3.54914,5.21392 -15.87799,18.39803 -19.898,21.27833 -2.5155,1.80232 -2.5155,1.80232 -21.00847,-16.34879 z"
         id="path5759"
         inkscape:connector-curvature="0" />
      <path
         style="fill:#b6b190"
         d="m 634.07141,737.38311 c -34.40401,-34.77568 -76.61403,-66.06013 -124.01895,-91.91813 -5.75111,-3.13707 -8.88569,-5.74213 -13.33197,-11.07987 -8.29015,-9.95229 -34.38219,-35.17189 -46.19852,-44.65378 -21.71343,-17.42372 -45.04551,-32.56922 -70.45056,-45.7314 -9.72566,-5.0388 -15.17749,-8.58862 -19.5,-12.69694 -36.06756,-34.28027 -90.74826,-76.42586 -136.75689,-105.40646 -8.13164,-5.12208 -15.49092,-10.59549 -17.99757,-13.38558 -30.61937,-34.08157 -69.8535,-64.9478 -112.245539,-88.30568 -8.25,-4.54573 -15.179167,-8.40277 -15.398148,-8.57121 -0.218982,-0.16844 2.651081,-3.35209 6.377916,-7.07477 8.834051,-8.82421 14.561444,-16.33742 19.660401,-25.79056 4.13718,-7.67007 4.13718,-7.67007 15.74851,3.77296 34.1195,33.62495 75.02887,64.6017 110.61132,83.75535 6.50955,3.50403 10.51734,6.8389 21.51189,17.90002 37.77197,38.00069 79.46595,69.54382 134.0082,101.38248 7.67682,4.48129 12.33518,8.33125 24.05944,19.88426 32.78633,32.30743 71.68163,61.95835 109.81674,83.71622 11.77866,6.72027 13.14472,7.84998 27.41825,22.67437 35.98184,37.37046 74.00438,66.09143 119.03718,89.91673 6.95656,3.68048 12.6483,6.88928 12.6483,7.13068 0,0.24139 -1.53452,3.48604 -3.41003,7.21032 -5.00849,9.94552 -14.99258,22.27665 -23.58997,29.13542 -3.5,2.79221 -3.5,2.79221 -18,-11.86443 z"
         id="path5757"
         inkscape:connector-curvature="0" />
      <path
         style="fill:#b4ca4f"
         d="m 631.07141,734.21649 c -24.29255,-24.43276 -44.94385,-41.29615 -75.59291,-61.72747 -13.78438,-9.18896 -38.82576,-24.31022 -48.06118,-29.02178 -2.27549,-1.16087 -7.95242,-6.5617 -13.54148,-12.8829 -30.92747,-34.9788 -72.68283,-66.60687 -118.04498,-89.41452 -6.23248,-3.13363 -11.41539,-7.05661 -22.19534,-16.79984 -42.62902,-38.5293 -90.03911,-74.471 -134.06411,-101.63431 -5.99803,-3.70076 -11.87882,-8.91329 -23.5,-20.82955 -23.96063,-24.56905 -43.72125,-41.10703 -69.46594,-58.13717 -15.07513,-9.97221 -45.188916,-27.47818 -47.267994,-27.47818 -0.696336,0 -1.266065,-0.16714 -1.266065,-0.37143 0,-0.20428 3.748098,-4.14178 8.329106,-8.75 8.89173,-8.94454 15.363133,-17.78036 19.265713,-26.30472 2.40943,-5.26288 2.40943,-5.26288 13.75405,5.92502 33.00309,32.54716 71.33834,61.71626 108.26817,82.38071 10.26035,5.74128 12.49514,7.58821 29,23.96689 34.34296,34.0804 76.8042,66.17693 123.88296,93.64335 14.30262,8.34435 15.79037,9.52451 32,25.38391 33.13676,32.4208 67.74227,58.69997 107.6458,81.74542 12.71065,7.34077 14.29342,8.60042 23.09579,18.38085 15.20956,16.89954 38.3925,37.66443 61.25841,54.86896 21.88215,16.46434 38.37019,26.88982 61.5,38.88681 6.875,3.56593 12.64202,6.60919 12.81559,6.76279 0.53981,0.47771 -5.94306,11.6855 -10.40092,17.98144 -2.33657,3.3 -7.77325,9.38101 -12.08149,13.51336 -7.83318,7.51336 -7.83318,7.51336 -25.33318,-10.08764 z"
         id="path5755"
         inkscape:connector-curvature="0" />
      <path
         style="fill:#a9a870"
         d="m 631.07141,734.21649 c -24.29255,-24.43276 -44.94385,-41.29615 -75.59291,-61.72747 -13.78438,-9.18896 -38.82576,-24.31022 -48.06118,-29.02178 -2.27549,-1.16087 -7.95242,-6.5617 -13.54148,-12.8829 -30.92747,-34.9788 -72.68283,-66.60687 -118.04498,-89.41452 -6.23248,-3.13363 -11.41539,-7.05661 -22.19534,-16.79984 -42.62902,-38.5293 -90.03911,-74.471 -134.06411,-101.63431 -5.99803,-3.70076 -11.87882,-8.91329 -23.5,-20.82955 -23.96063,-24.56905 -43.72125,-41.10703 -69.46594,-58.13717 -15.07513,-9.97221 -45.188916,-27.47818 -47.267994,-27.47818 -0.696336,0 -1.266065,-0.16714 -1.266065,-0.37143 0,-0.20428 3.748098,-4.14178 8.329106,-8.75 8.89173,-8.94454 15.363133,-17.78036 19.265713,-26.30472 2.40943,-5.26288 2.40943,-5.26288 13.75405,5.92502 33.00309,32.54716 71.33834,61.71626 108.26817,82.38071 10.26035,5.74128 12.49514,7.58821 29,23.96689 34.34296,34.0804 76.8042,66.17693 123.88296,93.64335 14.30262,8.34435 15.79037,9.52451 32,25.38391 33.13676,32.4208 67.74227,58.69997 107.6458,81.74542 12.71065,7.34077 14.29342,8.60042 23.09579,18.38085 15.20956,16.89954 38.3925,37.66443 61.25841,54.86896 21.88215,16.46434 38.37019,26.88982 61.5,38.88681 6.875,3.56593 12.64202,6.60919 12.81559,6.76279 0.53981,0.47771 -5.94306,11.6855 -10.40092,17.98144 -2.33657,3.3 -7.77325,9.38101 -12.08149,13.51336 -7.83318,7.51336 -7.83318,7.51336 -25.33318,-10.08764 z m 25.34364,6.82428 c 8.66743,-8.67117 18.65636,-22.92386 18.65636,-26.61978 0,-0.53301 -5.5206,-3.85065 -12.26801,-7.37254 -24.61001,-12.84549 -55.97281,-34.11834 -79.50785,-53.92883 -4.78872,-4.03087 -17.61695,-16.13645 -28.5072,-26.9013 -19.80044,-19.57244 -19.80044,-19.57244 -23.97653,-11.54546 -4.01851,7.72408 -14.49769,19.86362 -20.68008,23.95671 -1.34181,0.88836 -2.24181,1.78359 -2,1.98941 0.24182,0.20582 6.51467,3.86818 13.93967,8.13859 42.63792,24.52275 85.12979,57.06541 114,87.30762 6.325,6.62558 11.85927,12.0868 12.29839,12.13604 0.43911,0.0492 4.05947,-3.17296 8.04525,-7.16046 z M 510.21968,632.59312 c 3.28864,-2.58371 8.04237,-7.42121 10.56384,-10.75 4.42164,-5.83736 10.4722,-17.42995 9.72967,-18.64158 -0.1986,-0.32408 -6.00053,-3.83588 -12.89316,-7.80399 -35.54609,-20.46402 -72.80166,-48.86479 -104.32216,-79.52717 -14.04345,-13.66112 -15.60627,-14.89953 -16.61404,-13.16526 -4.80371,8.26668 -13.57183,20.37843 -18.98637,26.22664 -6.50072,7.02137 -6.50072,7.02137 -1.81338,9.28097 10.41261,5.01956 32.51891,18.01533 46.28311,27.20874 27.71627,18.51232 51.05754,38.32528 69.94984,59.37608 6.1667,6.87127 11.41718,12.49322 11.66774,12.49322 0.25055,0 3.14626,-2.11394 6.43491,-4.69765 z M 374.32823,525.46995 c 6.77873,-7.02154 18.7746,-24.43571 18.70267,-27.1503 -0.0237,-0.89405 -5.49272,-4.64306 -13.17128,-9.02888 -43.99108,-25.12672 -88.45026,-58.6675 -121.65513,-91.77874 -9.0018,-8.97642 -16.48207,-16.18587 -16.62282,-16.02101 -0.14075,0.16486 -1.05318,1.87475 -2.02762,3.79975 -3.37451,6.66634 -9.38035,14.72531 -17.04833,22.87642 -4.23662,4.50355 -7.53,8.33443 -7.31863,8.51305 0.21138,0.17863 6.23432,4.09302 13.38432,8.69864 44.17689,28.45624 94.28836,67.3085 128,99.24054 4.4,4.16773 8.71367,7.59876 9.58594,7.62452 0.87226,0.0258 4.54916,-3.02254 8.17088,-6.77399 z M 224.7847,398.85911 c 5.8362,-6.79342 12.28671,-17.14089 12.28671,-19.70952 0,-1.04462 -2.56952,-3.1168 -6.75,-5.44353 -22.09729,-12.29867 -51.34221,-32.32422 -71.25,-48.78866 -11.32909,-9.36955 -33.93089,-29.85383 -41.97111,-38.03892 -3.55911,-3.62324 -6.74669,-6.58771 -7.08351,-6.58771 -0.33682,0 -2.89004,3.4875 -5.67383,7.75 -5.459781,8.35996 -18.777312,24.25 -20.324051,24.25 -0.521124,0 -0.947498,0.6123 -0.947498,1.36068 0,0.74837 2.8125,2.8518 6.25,4.6743 39.085239,20.72225 78.570889,50.33285 108.249999,81.17752 13,13.51054 13,13.51054 17.5,9.46736 2.475,-2.22375 6.84598,-6.77394 9.71329,-10.11152 z"
         id="path5753"
         inkscape:connector-curvature="0" />
      <path
         style="fill:#a7b34e"
         d="m 647.47673,750.44397 c 0.75927,-1.22853 -31.91449,-33.12795 -45.40532,-44.32926 -14.31283,-11.88381 -32.68257,-25.48226 -49,-36.27293 -13.69358,-9.05553 -42.60143,-26.19684 -46.94345,-27.83576 -1.50437,-0.56784 -3.82002,-2.64857 -5.14588,-4.62384 -4.43132,-6.60177 -38.25789,-39.60863 -50.91067,-49.67698 -21.40156,-17.03011 -52.46594,-36.88944 -74.21561,-47.44573 -5.88597,-2.85678 -10.86581,-6.59409 -21,-15.76026 -43.24922,-39.11802 -89.03618,-74.00438 -132.73127,-101.13166 -8.94315,-5.55218 -12.71665,-8.70433 -20.29764,-16.95535 -23.62875,-25.71715 -54.82016,-51.27904 -86.56921,-70.94494 -14.1454,-8.76191 -32.958987,-19.3201 -34.946036,-19.61174 -0.712371,-0.10455 -1.282848,-0.49939 -1.267727,-0.87742 0.01512,-0.37803 0.299333,-0.6396 0.63158,-0.58127 1.087573,0.19093 9.519545,-8.45478 15.47697,-15.86931 6.100373,-7.59243 13.185513,-19.32951 12.701083,-21.04032 -0.15517,-0.54804 0.0554,-1.04143 0.46786,-1.09643 0.4125,-0.055 0.6375,0.0489 0.5,0.23098 -0.1375,0.18204 3.125,3.69151 7.25,7.79881 34.34113,34.19381 71.77183,63.04366 110,84.78288 11.77811,6.69786 13.53953,8.13584 30.5,24.89942 35.02551,34.6189 76.40468,65.87275 124,93.65769 14.33969,8.37115 15.74836,9.49134 32,25.44683 33.37662,32.76839 71.77995,61.7376 110.0723,83.03206 9.17424,5.10182 11.4032,6.94014 20.77391,17.13317 24.8516,27.03244 61.88243,57.52848 93.72232,77.18323 15.2993,9.44425 38.74371,21.96901 39.84664,21.28736 0.52065,-0.32178 1.20419,-0.16832 1.51898,0.34102 0.80608,1.30427 -0.45674,4.21062 -1.53893,3.54179 -0.49237,-0.3043 -0.89522,0.0692 -0.89522,0.83012 0,2.9062 -12.11494,19.54876 -19.25794,26.45506 -4.10734,3.97123 -7.22958,7.45873 -6.93831,7.75 0.29127,0.29127 -0.24697,0.52958 -1.1961,0.52958 -0.94913,0 -1.49018,-0.38106 -1.20233,-0.8468 z m 8.93832,-9.4032 c 8.66743,-8.67117 18.65636,-22.92386 18.65636,-26.61978 0,-0.53301 -5.5206,-3.85065 -12.26801,-7.37254 -24.61001,-12.84549 -55.97281,-34.11834 -79.50785,-53.92883 -4.78872,-4.03087 -17.61695,-16.13645 -28.5072,-26.9013 -19.80044,-19.57244 -19.80044,-19.57244 -23.97653,-11.54546 -4.01851,7.72408 -14.49769,19.86362 -20.68008,23.95671 -1.34181,0.88836 -2.24181,1.78359 -2,1.98941 0.24182,0.20582 6.51467,3.86818 13.93967,8.13859 42.63792,24.52275 85.12979,57.06541 114,87.30762 6.325,6.62558 11.85927,12.0868 12.29839,12.13604 0.43911,0.0492 4.05947,-3.17296 8.04525,-7.16046 z M 510.21968,632.59312 c 3.28864,-2.58371 8.04237,-7.42121 10.56384,-10.75 4.42164,-5.83736 10.4722,-17.42995 9.72967,-18.64158 -0.1986,-0.32408 -6.00053,-3.83588 -12.89316,-7.80399 -35.54609,-20.46402 -72.80166,-48.86479 -104.32216,-79.52717 -14.04345,-13.66112 -15.60627,-14.89953 -16.61404,-13.16526 -4.80371,8.26668 -13.57183,20.37843 -18.98637,26.22664 -6.50072,7.02137 -6.50072,7.02137 -1.81338,9.28097 10.41261,5.01956 32.51891,18.01533 46.28311,27.20874 27.71627,18.51232 51.05754,38.32528 69.94984,59.37608 6.1667,6.87127 11.41718,12.49322 11.66774,12.49322 0.25055,0 3.14626,-2.11394 6.43491,-4.69765 z M 374.32823,525.46995 c 6.77873,-7.02154 18.7746,-24.43571 18.70267,-27.1503 -0.0237,-0.89405 -5.49272,-4.64306 -13.17128,-9.02888 -43.99108,-25.12672 -88.45026,-58.6675 -121.65513,-91.77874 -9.0018,-8.97642 -16.48207,-16.18587 -16.62282,-16.02101 -0.14075,0.16486 -1.05318,1.87475 -2.02762,3.79975 -3.37451,6.66634 -9.38035,14.72531 -17.04833,22.87642 -4.23662,4.50355 -7.53,8.33443 -7.31863,8.51305 0.21138,0.17863 6.23432,4.09302 13.38432,8.69864 44.17689,28.45624 94.28836,67.3085 128,99.24054 4.4,4.16773 8.71367,7.59876 9.58594,7.62452 0.87226,0.0258 4.54916,-3.02254 8.17088,-6.77399 z M 224.7847,398.85911 c 5.8362,-6.79342 12.28671,-17.14089 12.28671,-19.70952 0,-1.04462 -2.56952,-3.1168 -6.75,-5.44353 -22.09729,-12.29867 -51.34221,-32.32422 -71.25,-48.78866 -11.32909,-9.36955 -33.93089,-29.85383 -41.97111,-38.03892 -3.55911,-3.62324 -6.74669,-6.58771 -7.08351,-6.58771 -0.33682,0 -2.89004,3.4875 -5.67383,7.75 -5.459781,8.35996 -18.777312,24.25 -20.324051,24.25 -0.521124,0 -0.947498,0.6123 -0.947498,1.36068 0,0.74837 2.8125,2.8518 6.25,4.6743 39.085239,20.72225 78.570889,50.33285 108.249999,81.17752 13,13.51054 13,13.51054 17.5,9.46736 2.475,-2.22375 6.84598,-6.77394 9.71329,-10.11152 z"
         id="path5751"
         inkscape:connector-curvature="0" />
      <path
         style="fill:#90943a"
         d="m 647.88391,750.60766 c 0.72187,-0.28887 1.58438,-0.25335 1.91667,0.0789 0.33229,0.33229 -0.25834,0.56864 -1.3125,0.52522 -1.16495,-0.048 -1.4019,-0.28494 -0.60417,-0.60416 z m 28.83325,-35.79767 c -0.84688,-2.20693 0.22397,-4.0495 1.57074,-2.70273 0.63624,0.63624 0.64917,1.60115 0.0361,2.69659 -0.89754,1.6038 -0.99365,1.60417 -1.60687,0.006 z M 502.7853,639.98756 c -0.29549,-0.77003 0.78583,-1.87163 2.64301,-2.69257 1.72871,-0.76416 6.54734,-4.79218 10.70807,-8.95116 5.64609,-5.64372 8.61564,-9.66095 11.70709,-15.83748 2.27816,-4.55162 3.88827,-8.93716 3.57803,-9.74563 -0.7131,-1.85832 1.03193,-1.9195 2.55075,-0.0894 0.89168,1.07441 0.25942,3.12546 -2.85145,9.25 -4.76626,9.3836 -12.00037,18.43101 -18.97162,23.72704 -2.79277,2.12166 -5.07777,4.25916 -5.07777,4.75 0,1.40048 -3.72818,1.04318 -4.28611,-0.41077 z m -23.3089,-25.94679 c -1.90499,-2.25 -1.90499,-2.25 0.34501,-0.34501 1.2375,1.04774 2.25,2.06024 2.25,2.25 0,0.80025 -0.80479,0.20945 -2.59501,-1.90499 z M 367.36335,536.18271 c -0.81076,-0.81076 0.85274,-3.06888 6.19976,-8.4159 7.74361,-7.7436 19.25783,-24.1199 20.19737,-28.72604 0.60891,-2.98523 1.30148,-3.35945 3.02592,-1.63501 2.18025,2.18025 -11.18587,22.17545 -21.62315,32.34742 -2.80051,2.72932 -5.09184,5.54182 -5.09184,6.25 0,1.58089 -1.22546,1.66213 -2.70806,0.17953 z M 210.07141,415.79077 c -0.90985,-1.0963 -0.93127,-1.5 -0.0796,-1.5 1.82829,0 10.81825,-8.77634 17.28298,-16.8723 6.33498,-7.93348 10.79662,-15.82415 10.79662,-19.09446 0,-2.27269 1.02698,-2.60626 2.74247,-0.89077 2.56586,2.56586 -8.23534,19.0735 -20.17164,30.82864 -3.61395,3.55911 -6.57083,7.04661 -6.57083,7.75 0,1.7496 -2.47815,1.61261 -4,-0.22111 z M 78.51111,315.1932 c -0.865519,-1.40044 1.316344,-1.90131 2.431118,-0.55809 0.82853,0.99832 0.723,1.32233 -0.430682,1.32233 -0.840462,0 -1.740658,-0.34391 -2.000436,-0.76424 z m 29.11309,-37.81702 c -0.32198,-0.52097 -0.15917,-1.21065 0.3618,-1.53262 0.52097,-0.32198 1.21065,-0.15917 1.53263,0.3618 0.32197,0.52097 0.15916,1.21065 -0.36181,1.53262 -0.52097,0.32198 -1.21065,0.15917 -1.53262,-0.3618 z"
         id="path5749"
         inkscape:connector-curvature="0" />
    </g>
    <path
       style="fill:#000000"
       d="m 489.66958,1014.8392 c -8.72215,-9.6596 -31.22528,-30.2698 -45.87044,-42.01182 -22.37622,-17.94054 -47.96554,-35.08569 -77.74275,-52.08857 -7.1877,-4.1042 -14.30274,-8.95934 -16,-10.91804 -35.15731,-40.5728 -74.06973,-70.69996 -123.55641,-95.66107 -6.4262,-3.24138 -11.60312,-6.78414 -16,-10.9494 C 172.40573,767.12273 116.19307,724.05985 68.499983,694.42825 63.279073,691.18452 57.685143,686.23877 50.091553,678.15287 37.207533,664.43355 20.786003,649.27165 5.8002634,637.259 -11.800977,623.14975 -47.847887,599.84025 -64.809467,591.59967 c -6.86138,-3.33351 -6.53624,-5.97257 1.79277,-14.55109 7.47655,-7.70052 13.74992,-16.03749 17.72941,-23.56138 4.47532,-8.46135 5.628659,-8.07156 21.51695,7.27195 32.4474304,31.33488 68.28059,58.46049 103.770318,78.55385 11.03228,6.24619 13.22769,8.02213 27.223589,22.02204 35.06906,35.07909 78.24665,67.85914 127.27641,96.62714 13.40498,7.86532 15.59853,9.59337 29.04645,22.8825 32.36707,31.98487 68.28298,59.4395 107.95355,82.52121 13.11419,7.6303 14.05728,8.41474 33,27.44876 22.12465,22.23129 33.01526,31.79909 54.67291,48.03216 17.83627,13.36881 37.85884,26.05659 56.56933,35.84648 13.4336,7.02887 13.4336,7.02887 13.59647,11.33498 0.12628,3.33854 -0.63272,5.62733 -3.3779,10.18615 -4.65053,7.72298 -13.764,18.80008 -18.99185,23.08388 -6.6665,5.4627 -8.84829,4.9003 -17.29936,-4.4591 z m 11.8304,6.3802 c 0,-0.275 -0.225,-0.5 -0.5,-0.5 -0.275,0 -0.5,0.225 -0.5,0.5 0,0.275 0.225,0.5 0.5,0.5 0.275,0 0.5,-0.225 0.5,-0.5 z m 6.97812,-8.978 c 4.05533,-4.0826 7.71315,-7.2128 8.1285,-6.9561 0.41535,0.2567 1.08081,-0.06 1.47879,-0.7041 0.45192,-0.7313 0.29014,-0.903 -0.4309,-0.4573 -0.63498,0.3924 -1.15451,0.2635 -1.15451,-0.2865 0,-1.0013 1.91336,-2.5739 3.16667,-2.6027 0.36666,-0.01 1.04166,-0.425 1.5,-0.9257 0.492,-0.53742 0.26819,-0.58281 -0.5464,-0.1108 -0.9437,0.5469 -1.23339,0.3605 -0.91667,-0.58964 0.25469,-0.76406 0.95057,-1.3892 1.5464,-1.3892 0.59583,0 1.45833,-0.40965 1.91667,-0.91033 0.48416,-0.52889 0.30957,-0.60891 -0.41667,-0.19098 -1.84989,1.06457 -1.56488,0.12894 1.75,-5.7447 1.65,-2.92363 3,-5.61272 3,-5.97573 0,-0.36301 -4.51834,-2.92743 -10.04075,-5.69871 -5.52241,-2.77127 -9.77403,-5.47022 -9.44806,-5.99766 0.3421,-0.55352 -0.13284,-0.68057 -1.1233,-0.3005 -1.25638,0.48212 -1.49674,0.30375 -0.89743,-0.66596 0.53701,-0.8689 0.43156,-1.08527 -0.30658,-0.62907 -1.58001,0.9765 -7.41198,-2.20827 -6.56207,-3.58346 0.41191,-0.66648 0.23299,-0.83119 -0.44663,-0.41116 -1.55592,0.9616 -5.39375,-1.22906 -4.54868,-2.59642 0.41559,-0.67244 0.22386,-0.82087 -0.49023,-0.37954 -1.54337,0.95386 -8.3423,-3.27341 -7.48799,-4.6557 0.40299,-0.65206 0.18526,-0.77524 -0.55817,-0.31577 -1.4308,0.88428 -12.43341,-6.07983 -11.63824,-7.36643 0.28963,-0.46864 -0.25605,-0.79038 -1.21263,-0.71498 -0.95658,0.0754 -1.64439,-0.37246 -1.52846,-0.99525 0.11594,-0.6228 -0.54821,-1.0728 -1.47587,-1 -0.92767,0.0728 -1.69752,-0.39265 -1.71079,-1.03432 -0.0133,-0.64166 -0.43377,-1.54166 -0.93445,-2 -0.52889,-0.48416 -0.60891,-0.30957 -0.19098,0.41667 0.39564,0.6875 0.29789,1.25 -0.21723,1.25 -1.26214,0 -3.30581,-2.54232 -2.60612,-3.24201 0.3069,-0.30689 -0.24865,-0.49049 -1.23455,-0.40799 -0.9859,0.0825 -1.8034,-0.375 -1.81667,-1.01667 -0.0133,-0.64166 -0.43377,-1.54166 -0.93445,-2 -0.52889,-0.48416 -0.60891,-0.30957 -0.19098,0.41667 0.39564,0.6875 0.26934,1.25 -0.28066,1.25 -1.00132,0 -2.57393,-1.91336 -2.60272,-3.16667 -0.008,-0.36666 -0.42496,-1.04166 -0.92564,-1.5 -0.52889,-0.48416 -0.60891,-0.30957 -0.19098,0.41667 0.39564,0.6875 0.26934,1.25 -0.28066,1.25 -1.00132,0 -2.57393,-1.91336 -2.60272,-3.16667 -0.008,-0.36666 -0.42496,-1.04166 -0.92564,-1.5 -0.52889,-0.48416 -0.60891,-0.30957 -0.19098,0.41667 0.39564,0.6875 0.31253,1.25 -0.18469,1.25 -1.27787,0 -4.33572,-3.54494 -3.64965,-4.23102 0.31279,-0.31279 0.0192,-0.9083 -0.65233,-1.32335 -0.78026,-0.48223 -0.96347,-0.33789 -0.50751,0.39986 0.39244,0.63498 0.29207,1.15451 -0.22305,1.15451 -1.22056,0 -3.31639,-2.53174 -2.64862,-3.19951 0.28352,-0.28352 -0.25676,-1.14211 -1.20063,-1.90799 -1.13552,-0.92139 -1.46205,-0.9696 -0.96515,-0.1425 1.37897,2.2953 -0.98703,1.28523 -3.44275,-1.46974 -1.33337,-1.49586 -1.63681,-2.11576 -0.67431,-1.37755 2.49046,1.91008 2.17119,0.7767 -0.42189,-1.49772 -1.19455,-1.04775 -1.84299,-1.34249 -1.44099,-0.65499 1.43208,2.44913 -1.06164,1.19636 -3.95003,-1.98437 -1.6154,-1.7789 -1.92459,-2.38415 -0.68709,-1.34501 3.14853,2.64386 2.81953,1.44683 -0.41125,-1.49631 -1.46369,-1.33337 -2.33713,-1.86181 -1.94098,-1.17431 1.24755,2.16509 -0.94841,1.35722 -3.39777,-1.25 -1.29175,-1.375 -1.96675,-2.5 -1.5,-2.5 0.46675,0 -0.19523,-1.11113 -1.47105,-2.46918 -1.27582,-1.35805 -2.69303,-2.23843 -3.14936,-1.9564 -1.02222,0.63176 -10.02761,-7.5259 -9.4104,-8.52456 0.24425,-0.39521 -1.6739,-2.7056 -4.26255,-5.13421 -4.70664,-4.41565 -4.70664,-4.41565 -0.2093,0.58435 4.49734,5 4.49734,5 -1.20381,-0.42023 -3.13564,-2.98112 -5.42741,-5.86315 -5.09283,-6.4045 0.33457,-0.54136 0.12981,-0.68855 -0.45504,-0.3271 -1.17917,0.72877 -6.53394,-5.07271 -5.79126,-6.27439 0.25728,-0.41628 -1.01047,-2.18965 -2.81721,-3.94081 -3.28498,-3.18393 -3.28498,-3.18393 -7.58991,5.59155 -3.62478,7.38902 -5.8407,10.29252 -14.02547,18.37747 -9.72055,9.60198 -9.72055,9.60198 -3.85835,12.82474 3.43948,1.89086 5.58639,3.669 5.19486,4.30252 -0.40299,0.65205 -0.19816,0.7898 0.51708,0.34776 1.40192,-0.86643 17.36937,8.21792 16.60849,9.44905 -0.28408,0.45966 0.0104,1.16137 0.65431,1.55935 0.78484,0.48506 0.90097,0.28698 0.35226,-0.60084 -1.2593,-2.0376 1.49353,-0.70731 10.52513,5.08623 4.39104,2.81673 7.75152,5.497 7.46774,5.95617 -0.28377,0.45916 0.0109,1.16046 0.65487,1.55844 0.73122,0.45192 0.90292,0.29014 0.45729,-0.4309 -1.22345,-1.97959 0.30735,-1.29501 6.48473,2.89997 3.28376,2.22996 5.72673,4.44886 5.42882,4.9309 -0.29792,0.48203 -0.0148,1.20205 0.62916,1.60003 0.73122,0.45192 0.90292,0.29014 0.45729,-0.4309 -1.07764,-1.74366 0.26244,-1.39186 3.5119,0.92196 1.60387,1.14205 2.67849,2.46096 2.38806,2.9309 -0.29044,0.46994 -10e-4,1.18006 0.64275,1.57804 0.73122,0.45192 0.90292,0.29014 0.45729,-0.4309 -0.39244,-0.63498 -0.29207,-1.15451 0.22305,-1.15451 1.26201,0 3.30584,2.54229 2.60625,3.24187 -0.30682,0.30682 -0.008,0.89745 0.66319,1.3125 0.78026,0.48223 0.96347,0.33789 0.50751,-0.39986 -0.39244,-0.63498 -0.26352,-1.15451 0.28648,-1.15451 1.00132,0 2.57393,1.91336 2.60272,3.16667 0.008,0.36666 0.42496,1.04166 0.92564,1.5 0.52889,0.48416 0.60891,0.30957 0.19098,-0.41667 -0.39564,-0.6875 -0.26934,-1.25 0.28066,-1.25 1.00132,0 2.57393,1.91336 2.60272,3.16667 0.008,0.36666 0.42496,1.04166 0.92564,1.5 0.52889,0.48416 0.60891,0.30957 0.19098,-0.41667 -0.39564,-0.6875 -0.31253,-1.25 0.18469,-1.25 1.27787,0 4.33572,3.54494 3.64965,4.23102 -0.31279,0.31279 -0.0192,0.9083 0.65233,1.32335 0.78026,0.48223 0.96347,0.33789 0.50751,-0.39986 -1.04777,-1.69534 0.94887,-1.40845 2.40451,0.34549 0.68469,0.825 0.90969,1.5 0.5,1.5 -0.40969,0 -0.1888,0.67005 0.49086,1.48899 0.67967,0.81894 1.65448,1.2302 2.16625,0.91391 1.12783,-0.69704 4.0106,1.51673 3.35546,2.57676 -0.25597,0.41418 0.52873,1.60069 1.74378,2.63669 1.83805,1.5672 1.98151,1.58966 0.85397,0.13365 -2.54068,-3.28081 0.48621,-1.76205 3.94351,1.97868 1.89539,2.05078 2.43367,2.88103 1.19617,1.84501 -3.14661,-2.63429 -2.82005,-1.44161 0.41125,1.502 1.46369,1.33337 2.33713,1.86181 1.94098,1.17431 -0.39614,-0.6875 -0.32215,-1.25 0.16444,-1.25 1.18952,0 5.38062,4.51938 4.76344,5.13655 -0.2685,0.2685 1.59239,2.48512 4.13531,4.92582 2.54292,2.4407 4.30693,3.87513 3.92002,3.18763 -0.38691,-0.6875 -0.27137,-1.25 0.25676,-1.25 1.31837,0 15.35577,15.13534 14.67178,15.81934 -1.0068,1.0068 5.4182,6.7388 7.77186,6.9336 1.68749,0.1397 4.32677,-1.8294 9.69228,-7.2309 z m -14.54103,3.228 c -2.93709,-3.25 -2.93709,-3.25 0.31291,-0.313 1.7875,1.6154 3.25,3.0779 3.25,3.25 0,0.7726 -0.82513,0.092 -3.56291,-2.937 z m -22.49092,-22.50004 c -3.44617,-3.75 -3.44617,-3.75 0.30383,-0.30383 3.49042,3.20761 4.20979,4.05383 3.44617,4.05383 -0.16711,0 -1.85461,-1.6875 -3.75,-3.75 z m -17.94617,-15.75 c 0,-0.275 0.225,-0.5 0.5,-0.5 0.275,0 0.5,0.225 0.5,0.5 0,0.275 -0.225,0.5 -0.5,0.5 -0.275,0 -0.5,-0.225 -0.5,-0.5 z m -5.59549,-4.65451 c -0.44208,-0.7153 -0.27432,-0.88306 0.44098,-0.44098 0.63498,0.39244 1.15451,0.91197 1.15451,1.15451 0,0.83414 -0.88305,0.43922 -1.59549,-0.71353 z m -5.40451,-42.34549 c 0,-0.275 0.225,-0.5 0.5,-0.5 0.275,0 0.5,0.225 0.5,0.5 0,0.275 -0.225,0.5 -0.5,0.5 -0.275,0 -0.5,-0.225 -0.5,-0.5 z m -21.59501,-18.75 c -1.90499,-2.25 -1.90499,-2.25 0.34501,-0.34501 1.2375,1.04774 2.25,2.06024 2.25,2.25 0,0.80025 -0.80479,0.20945 -2.59501,-1.90499 z m -31.9679,-32 c -2.93709,-3.25 -2.93709,-3.25 0.31291,-0.31291 1.7875,1.6154 3.25,3.0779 3.25,3.25 0,0.77256 -0.82513,0.0924 -3.56291,-2.93709 z m 121.06291,134.25004 c 2.70865,-2.75 4.69982,-5 4.42482,-5 -0.275,0 -2.71617,2.25 -5.42482,5 -2.70865,2.75 -4.69982,5 -4.42482,5 0.275,0 2.71617,-2.25 5.42482,-5 z m 14.5,-18.50004 c 0,-0.275 -0.225,-0.5 -0.5,-0.5 -0.275,0 -0.5,0.225 -0.5,0.5 0,0.275 0.225,0.5 0.5,0.5 0.275,0 0.5,-0.225 0.5,-0.5 z m 3,-5 c 0,-0.275 -0.225,-0.5 -0.5,-0.5 -0.275,0 -0.5,0.225 -0.5,0.5 0,0.275 0.225,0.5 0.5,0.5 0.275,0 0.5,-0.225 0.5,-0.5 z m 1,-2 c 0,-0.275 -0.225,-0.5 -0.5,-0.5 -0.275,0 -0.5,0.225 -0.5,0.5 0,0.275 0.225,0.5 0.5,0.5 0.275,0 0.5,-0.225 0.5,-0.5 z m -12,-11 c 0,-0.275 -0.225,-0.5 -0.5,-0.5 -0.275,0 -0.5,0.225 -0.5,0.5 0,0.275 0.225,0.5 0.5,0.5 0.275,0 0.5,-0.225 0.5,-0.5 z m -2,-1 c 0,-0.275 -0.225,-0.5 -0.5,-0.5 -0.275,0 -0.5,0.225 -0.5,0.5 0,0.275 0.225,0.5 0.5,0.5 0.275,0 0.5,-0.225 0.5,-0.5 z m -2,-1 c 0,-0.275 -0.225,-0.5 -0.5,-0.5 -0.275,0 -0.5,0.225 -0.5,0.5 0,0.275 0.225,0.5 0.5,0.5 0.275,0 0.5,-0.225 0.5,-0.5 z m -2,-1 c 0,-0.275 -0.225,-0.5 -0.5,-0.5 -0.275,0 -0.5,0.225 -0.5,0.5 0,0.275 0.225,0.5 0.5,0.5 0.275,0 0.5,-0.225 0.5,-0.5 z m -7,-4 c 0,-0.275 -0.225,-0.5 -0.5,-0.5 -0.275,0 -0.5,0.225 -0.5,0.5 0,0.275 0.225,0.5 0.5,0.5 0.275,0 0.5,-0.225 0.5,-0.5 z m -2,-1 c 0,-0.275 -0.225,-0.5 -0.5,-0.5 -0.275,0 -0.5,0.225 -0.5,0.5 0,0.275 0.225,0.5 0.5,0.5 0.275,0 0.5,-0.225 0.5,-0.5 z m -5,-3 c 0,-0.275 -0.225,-0.5 -0.5,-0.5 -0.275,0 -0.5,0.225 -0.5,0.5 0,0.275 0.225,0.5 0.5,0.5 0.275,0 0.5,-0.225 0.5,-0.5 z m -5,-3 c 0,-0.275 -0.225,-0.5 -0.5,-0.5 -0.275,0 -0.5,0.225 -0.5,0.5 0,0.275 0.225,0.5 0.5,0.5 0.275,0 0.5,-0.225 0.5,-0.5 z m -3,-2 c 0,-0.275 -0.225,-0.5 -0.5,-0.5 -0.275,0 -0.5,0.225 -0.5,0.5 0,0.275 0.225,0.5 0.5,0.5 0.275,0 0.5,-0.225 0.5,-0.5 z m -5,-3 c 0,-0.275 -0.225,-0.5 -0.5,-0.5 -0.275,0 -0.5,0.225 -0.5,0.5 0,0.275 0.225,0.5 0.5,0.5 0.275,0 0.5,-0.225 0.5,-0.5 z m -3,-2 c 0,-0.275 -0.225,-0.5 -0.5,-0.5 -0.275,0 -0.5,0.225 -0.5,0.5 0,0.275 0.225,0.5 0.5,0.5 0.275,0 0.5,-0.225 0.5,-0.5 z m -56,-0.94098 c 0,-0.24254 -0.51953,-0.76207 -1.15451,-1.15451 -0.7153,-0.44208 -0.88306,-0.27432 -0.44098,0.44098 0.71244,1.15275 1.59549,1.54767 1.59549,0.71353 z m 53,-1.05902 c 0,-0.275 -0.225,-0.5 -0.5,-0.5 -0.275,0 -0.5,0.225 -0.5,0.5 0,0.275 0.225,0.5 0.5,0.5 0.275,0 0.5,-0.225 0.5,-0.5 z m -60,-3.94098 c 0,-0.24254 -0.51953,-0.76207 -1.15451,-1.15451 -0.7153,-0.44208 -0.88306,-0.27432 -0.44098,0.44098 0.71244,1.15275 1.59549,1.54767 1.59549,0.71353 z m -4,-3.05902 c 0,-0.275 -0.225,-0.5 -0.5,-0.5 -0.275,0 -0.5,0.225 -0.5,0.5 0,0.275 0.225,0.5 0.5,0.5 0.275,0 0.5,-0.225 0.5,-0.5 z m -3,-2 c 0,-0.275 -0.225,-0.5 -0.5,-0.5 -0.275,0 -0.5,0.225 -0.5,0.5 0,0.275 0.225,0.5 0.5,0.5 0.275,0 0.5,-0.225 0.5,-0.5 z m -6,-4 c 0,-0.275 -0.225,-0.5 -0.5,-0.5 -0.275,0 -0.5,0.225 -0.5,0.5 0,0.275 0.225,0.5 0.5,0.5 0.275,0 0.5,-0.225 0.5,-0.5 z m -3,-2 c 0,-0.275 -0.225,-0.5 -0.5,-0.5 -0.275,0 -0.5,0.225 -0.5,0.5 0,0.275 0.225,0.5 0.5,0.5 0.275,0 0.5,-0.225 0.5,-0.5 z m -3,-2 c 0,-0.275 -0.225,-0.5 -0.5,-0.5 -0.275,0 -0.5,0.225 -0.5,0.5 0,0.275 0.225,0.5 0.5,0.5 0.275,0 0.5,-0.225 0.5,-0.5 z m -2,-0.94098 c 0,-0.24254 -0.51953,-0.76207 -1.15451,-1.15451 -0.7153,-0.44208 -0.88306,-0.27432 -0.44098,0.44098 0.71244,1.15275 1.59549,1.54767 1.59549,0.71353 z m -3,-2.05902 c 0,-0.275 -0.225,-0.5 -0.5,-0.5 -0.275,0 -0.5,0.225 -0.5,0.5 0,0.275 0.225,0.5 0.5,0.5 0.275,0 0.5,-0.225 0.5,-0.5 z m -3,-2 c 0,-0.275 -0.225,-0.5 -0.5,-0.5 -0.275,0 -0.5,0.225 -0.5,0.5 0,0.275 0.225,0.5 0.5,0.5 0.275,0 0.5,-0.225 0.5,-0.5 z m -5,-3 c 0,-0.275 -0.225,-0.5 -0.5,-0.5 -0.275,0 -0.5,0.225 -0.5,0.5 0,0.275 0.225,0.5 0.5,0.5 0.275,0 0.5,-0.225 0.5,-0.5 z m -2,-1 c 0,-0.275 -0.225,-0.5 -0.5,-0.5 -0.275,0 -0.5,0.225 -0.5,0.5 0,0.275 0.225,0.5 0.5,0.5 0.275,0 0.5,-0.225 0.5,-0.5 z m -3,-2 c 0,-0.275 -0.225,-0.5 -0.5,-0.5 -0.275,0 -0.5,0.225 -0.5,0.5 0,0.275 0.225,0.5 0.5,0.5 0.275,0 0.5,-0.225 0.5,-0.5 z m -2,-1 c 0,-0.275 -0.225,-0.5 -0.5,-0.5 -0.275,0 -0.5,0.225 -0.5,0.5 0,0.275 0.225,0.5 0.5,0.5 0.275,0 0.5,-0.225 0.5,-0.5 z m -3,-2 c 0,-0.275 -0.225,-0.5 -0.5,-0.5 -0.275,0 -0.5,0.225 -0.5,0.5 0,0.275 0.225,0.5 0.5,0.5 0.275,0 0.5,-0.225 0.5,-0.5 z m -2,-1 c 0,-0.275 -0.225,-0.5 -0.5,-0.5 -0.275,0 -0.5,0.225 -0.5,0.5 0,0.275 0.225,0.5 0.5,0.5 0.275,0 0.5,-0.225 0.5,-0.5 z m -5,-3 c 0,-0.275 -0.225,-0.5 -0.5,-0.5 -0.275,0 -0.5,0.225 -0.5,0.5 0,0.275 0.225,0.5 0.5,0.5 0.275,0 0.5,-0.225 0.5,-0.5 z m -2,-1 c 0,-0.275 -0.225,-0.5 -0.5,-0.5 -0.275,0 -0.5,0.225 -0.5,0.5 0,0.275 0.225,0.5 0.5,0.5 0.275,0 0.5,-0.225 0.5,-0.5 z m -2,-1 c 0,-0.275 -0.225,-0.5 -0.5,-0.5 -0.275,0 -0.5,0.225 -0.5,0.5 0,0.275 0.225,0.5 0.5,0.5 0.275,0 0.5,-0.225 0.5,-0.5 z m -3,-2 c 0,-0.275 -0.225,-0.5 -0.5,-0.5 -0.275,0 -0.5,0.225 -0.5,0.5 0,0.275 0.225,0.5 0.5,0.5 0.275,0 0.5,-0.225 0.5,-0.5 z m -2,-1 c 0,-0.275 -0.225,-0.5 -0.5,-0.5 -0.275,0 -0.5,0.225 -0.5,0.5 0,0.275 0.225,0.5 0.5,0.5 0.275,0 0.5,-0.225 0.5,-0.5 z m -2,-1 c 0,-0.275 -0.225,-0.5 -0.5,-0.5 -0.275,0 -0.5,0.225 -0.5,0.5 0,0.275 0.225,0.5 0.5,0.5 0.275,0 0.5,-0.225 0.5,-0.5 z m 12.13655,-16.40227 c 5.29951,-5.77271 12.86345,-18.4707 12.86345,-21.59455 0,-0.67545 -5.63254,-4.47077 -12.51675,-8.43404 -6.88421,-3.96326 -12.27687,-7.59406 -11.98368,-8.06844 0.29318,-0.47438 0.006,-1.18813 -0.63777,-1.58611 -0.73122,-0.45192 -0.90292,-0.29014 -0.45729,0.4309 1.17464,1.9006 -0.45644,1.32968 -5.56309,-1.94725 -2.66436,-1.70972 -4.54167,-3.57422 -4.18304,-4.15451 0.37341,-0.60418 0.17363,-0.75794 -0.46884,-0.36087 -1.31895,0.81515 -9.38852,-4.25189 -8.65683,-5.43579 0.27495,-0.44488 -0.027,-1.1345 -0.67091,-1.53248 -0.77343,-0.47801 -0.90143,-0.28773 -0.37711,0.56063 0.52908,0.85608 0.33054,1.12986 -0.59549,0.82118 -0.76406,-0.25469 -1.3892,-0.95057 -1.3892,-1.5464 0,-0.59583 -0.40965,-1.45833 -0.91033,-1.91667 -0.52889,-0.48416 -0.60891,-0.30957 -0.19098,0.41667 1.05075,1.82588 -0.1929,1.53272 -3.50608,-0.82647 -1.60387,-1.14205 -2.67849,-2.46096 -2.38806,-2.9309 0.29044,-0.46994 0.001,-1.18006 -0.64275,-1.57804 -0.73122,-0.45192 -0.90292,-0.29014 -0.45729,0.4309 1.07764,1.74366 -0.26244,1.39186 -3.5119,-0.92196 -1.60387,-1.14205 -2.67849,-2.46096 -2.38806,-2.9309 0.29044,-0.46994 0.001,-1.18006 -0.64275,-1.57804 -0.73122,-0.45192 -0.90292,-0.29014 -0.45729,0.4309 0.39244,0.63498 0.26352,1.15451 -0.28648,1.15451 -1.00132,0 -2.57393,-1.91336 -2.60272,-3.16667 -0.008,-0.36666 -0.42496,-1.04166 -0.92564,-1.5 -0.52889,-0.48416 -0.60891,-0.30957 -0.19098,0.41667 0.39564,0.6875 0.26934,1.25 -0.28066,1.25 -1.00132,0 -2.57393,-1.91336 -2.60272,-3.16667 -0.008,-0.36666 -0.42496,-1.04166 -0.92564,-1.5 -0.52889,-0.48416 -0.60891,-0.30957 -0.19098,0.41667 0.39564,0.6875 0.29789,1.25 -0.21723,1.25 -1.22056,0 -3.31639,-2.53174 -2.64862,-3.19951 0.28352,-0.28352 -0.25676,-1.14211 -1.20063,-1.90799 -1.13552,-0.92139 -1.46205,-0.9696 -0.96515,-0.1425 0.41304,0.6875 0.32952,1.25 -0.1856,1.25 -1.22056,0 -3.31639,-2.53174 -2.64862,-3.19951 0.28352,-0.28352 -0.25676,-1.14211 -1.20063,-1.90799 -1.13552,-0.92139 -1.46205,-0.9696 -0.96515,-0.1425 0.41304,0.6875 0.34416,1.25 -0.15306,1.25 -1.23294,0 -4.34734,-3.53333 -3.69202,-4.18865 0.2895,-0.28949 -0.27202,-1.15297 -1.24781,-1.91885 -1.61326,-1.26621 -1.64969,-1.23378 -0.40173,0.3575 0.75485,0.9625 0.93709,1.75 0.40499,1.75 -1.25965,0 -4.43479,-3.5093 -3.77348,-4.17062 0.27957,-0.27957 -0.49919,-1.36805 -1.73059,-2.41884 -1.81233,-1.54654 -1.98069,-1.57712 -0.88368,-0.16054 0.74536,0.9625 0.92855,1.75 0.40708,1.75 -1.25393,0 -5.45844,-4.50498 -4.80985,-5.15358 0.27786,-0.27786 -0.69058,-1.59447 -2.1521,-2.92581 -1.46152,-1.33134 -2.33319,-1.85811 -1.93704,-1.17061 0.39614,0.6875 0.3279,1.25 -0.15166,1.25 -1.19304,0 -6.39515,-5.51763 -5.78108,-6.1317 0.27117,-0.27117 -1.58753,-2.48997 -4.13045,-4.93067 -2.54292,-2.4407 -4.30693,-3.87513 -3.92002,-3.18763 0.38691,0.6875 0.33541,1.25 -0.11444,1.25 -1.40514,0 -15.4353,-14.97226 -14.87687,-15.87582 0.29127,-0.47129 -0.30662,-1.61365 -1.32866,-2.53857 -1.77621,-1.60746 -2.02262,-1.38161 -5.58221,5.11635 -4.90296,8.95027 -12.07455,18.51654 -18.92165,25.23982 -5.54201,5.44178 -5.54201,5.44178 6.18363,11.71955 6.4491,3.45278 11.60199,6.77492 11.45086,7.38255 -0.15112,0.60763 0.17316,0.82794 0.72064,0.48958 1.3207,-0.81623 7.27453,2.30092 6.57052,3.44003 -0.30195,0.48857 -0.0221,1.21394 0.62182,1.61192 0.73122,0.45192 0.90292,0.29014 0.45729,-0.4309 -1.2376,-2.00249 0.78292,-1.26971 6.69401,2.4277 3.2782,2.05053 5.44355,4.0407 5.0642,4.65451 -0.40616,0.65719 -0.18831,0.77909 0.56276,0.31491 1.47316,-0.91046 18.42929,10.07992 17.60619,11.41173 -0.3054,0.49414 -0.0284,1.22407 0.61555,1.62205 0.73122,0.45192 0.90292,0.29014 0.45729,-0.4309 -1.07764,-1.74366 0.26244,-1.39186 3.5119,0.92196 1.60387,1.14205 2.67849,2.46096 2.38806,2.9309 -0.29044,0.46994 -10e-4,1.18006 0.64275,1.57804 0.73122,0.45192 0.90292,0.29014 0.45729,-0.4309 -1.23483,-1.998 0.47724,-1.26496 4.51536,1.93329 2.14426,1.69828 3.67648,3.4473 3.40492,3.88669 -0.27156,0.43939 0.2888,1.41238 1.24524,2.1622 1.57367,1.2337 1.60851,1.19694 0.36655,-0.38669 -0.75485,-0.9625 -0.93709,-1.75 -0.40499,-1.75 1.27911,0 4.42988,3.51422 3.75545,4.18865 -0.2895,0.28949 0.27202,1.15297 1.24781,1.91885 1.61326,1.26621 1.64969,1.23378 0.40173,-0.3575 -0.75485,-0.9625 -0.94579,-1.75 -0.42432,-1.75 1.26532,0 5.45554,4.50789 4.79978,5.16365 -0.28341,0.2834 0.49998,1.37502 1.74085,2.42581 2.25613,1.91054 2.25613,1.91054 0.35114,-0.33946 -1.04774,-1.2375 -1.47352,-2.25 -0.94616,-2.25 1.26934,0 7.52972,6.48809 6.88371,7.1341 -0.27643,0.27643 1.17722,2.04685 3.23032,3.93425 3.73293,3.43165 3.73293,3.43165 0.79793,0.18165 -1.61424,-1.7875 -2.52065,-3.25 -2.01423,-3.25 1.22496,0 22.45342,21.19689 22.45342,22.42004 0,0.52478 -1.4625,-0.36661 -3.25,-1.98085 -3.25,-2.935 -3.25,-2.935 0.18165,0.79793 1.8874,2.0531 3.65782,3.50675 3.93425,3.23032 0.63596,-0.63597 7.1341,5.60447 7.1341,6.85117 0,0.50945 -0.7875,0.30868 -1.75,-0.44617 -1.58363,-1.24196 -1.62039,-1.20712 -0.38669,0.36655 0.74982,0.95644 1.70217,1.52956 2.11635,1.27358 0.41418,-0.25597 1.5458,0.41057 2.51471,1.48121 1.73572,1.91795 1.82797,1.89919 6.2632,-1.27358 2.47584,-1.77111 7.14638,-6.10122 10.37898,-9.62247 z m -27.13655,0.40227 c 0,-0.275 0.225,-0.5 0.5,-0.5 0.275,0 0.5,0.225 0.5,0.5 0,0.275 -0.225,0.5 -0.5,0.5 -0.275,0 -0.5,-0.225 -0.5,-0.5 z m -24,-24 c 0,-0.275 0.225,-0.5 0.5,-0.5 0.275,0 0.5,0.225 0.5,0.5 0,0.275 -0.225,0.5 -0.5,0.5 -0.275,0 -0.5,-0.225 -0.5,-0.5 z m -11,-49 c 0,-0.275 0.225,-0.5 0.5,-0.5 0.275,0 0.5,0.225 0.5,0.5 0,0.275 -0.225,0.5 -0.5,0.5 -0.275,0 -0.5,-0.225 -0.5,-0.5 z m -5,-4 c 0,-0.275 0.225,-0.5 0.5,-0.5 0.275,0 0.5,0.225 0.5,0.5 0,0.275 -0.225,0.5 -0.5,0.5 -0.275,0 -0.5,-0.225 -0.5,-0.5 z m -11,-9 c 0,-0.275 0.225,-0.5 0.5,-0.5 0.275,0 0.5,0.225 0.5,0.5 0,0.275 -0.225,0.5 -0.5,0.5 -0.275,0 -0.5,-0.225 -0.5,-0.5 z m -8.12756,-7.25 c -1.24387,-1.58606 -1.2085,-1.62143 0.37756,-0.37756 0.9625,0.75485 1.75,1.54235 1.75,1.75 0,0.82304 -0.82119,0.29331 -2.12756,-1.37244 z m -11.92627,-11 c -3.44617,-3.75 -3.44617,-3.75 0.30383,-0.30383 2.0625,1.89539 3.75,3.58289 3.75,3.75 0,0.76362 -0.84622,0.0443 -4.05383,-3.44617 z m -21.07373,-21 c -1.24387,-1.58606 -1.2085,-1.62143 0.37756,-0.37756 0.9625,0.75485 1.75,1.54235 1.75,1.75 0,0.82304 -0.82119,0.29331 -2.12756,-1.37244 z m 110.12756,136.25 c 0,-0.275 -0.225,-0.5 -0.5,-0.5 -0.275,0 -0.5,0.225 -0.5,0.5 0,0.275 0.225,0.5 0.5,0.5 0.275,0 0.5,-0.225 0.5,-0.5 z m 4.5,-3.5 c 0.33992,-0.55 0.39303,-1 0.11803,-1 -0.275,0 -0.77811,0.45 -1.11803,1 -0.33992,0.55 -0.39303,1 -0.11803,1 0.275,0 0.77811,-0.45 1.11803,-1 z m 8,-8 c 0.33992,-0.55 0.39303,-1 0.11803,-1 -0.275,0 -0.77811,0.45 -1.11803,1 -0.33992,0.55 -0.39303,1 -0.11803,1 0.275,0 0.77811,-0.45 1.11803,-1 z m 3.5,-4.5 c 0,-0.275 -0.225,-0.5 -0.5,-0.5 -0.275,0 -0.5,0.225 -0.5,0.5 0,0.275 0.225,0.5 0.5,0.5 0.275,0 0.5,-0.225 0.5,-0.5 z m 2,-3 c 0,-0.275 -0.225,-0.5 -0.5,-0.5 -0.275,0 -0.5,0.225 -0.5,0.5 0,0.275 0.225,0.5 0.5,0.5 0.275,0 0.5,-0.225 0.5,-0.5 z m 1,-2 c 0,-0.275 -0.225,-0.5 -0.5,-0.5 -0.275,0 -0.5,0.225 -0.5,0.5 0,0.275 0.225,0.5 0.5,0.5 0.275,0 0.5,-0.225 0.5,-0.5 z m 16,-2 c 0,-0.275 -0.225,-0.5 -0.5,-0.5 -0.275,0 -0.5,0.225 -0.5,0.5 0,0.275 0.225,0.5 0.5,0.5 0.275,0 0.5,-0.225 0.5,-0.5 z m -14,-1 c 0,-0.275 -0.225,-0.5 -0.5,-0.5 -0.275,0 -0.5,0.225 -0.5,0.5 0,0.275 0.225,0.5 0.5,0.5 0.275,0 0.5,-0.225 0.5,-0.5 z m 2,-5 c 0,-0.275 -0.225,-0.5 -0.5,-0.5 -0.275,0 -0.5,0.225 -0.5,0.5 0,0.275 0.225,0.5 0.5,0.5 0.275,0 0.5,-0.225 0.5,-0.5 z m 1,-2 c 0,-0.275 -0.225,-0.5 -0.5,-0.5 -0.275,0 -0.5,0.225 -0.5,0.5 0,0.275 0.225,0.5 0.5,0.5 0.275,0 0.5,-0.225 0.5,-0.5 z m 1,-3 c 0,-0.275 -0.225,-0.5 -0.5,-0.5 -0.275,0 -0.5,0.225 -0.5,0.5 0,0.275 0.225,0.5 0.5,0.5 0.275,0 0.5,-0.225 0.5,-0.5 z m -4,-3 c 0,-0.275 -0.225,-0.5 -0.5,-0.5 -0.275,0 -0.5,0.225 -0.5,0.5 0,0.275 0.225,0.5 0.5,0.5 0.275,0 0.5,-0.225 0.5,-0.5 z m -2,-1 c 0,-0.275 -0.225,-0.5 -0.5,-0.5 -0.275,0 -0.5,0.225 -0.5,0.5 0,0.275 0.225,0.5 0.5,0.5 0.275,0 0.5,-0.225 0.5,-0.5 z m -2,-1 c 0,-0.275 -0.225,-0.5 -0.5,-0.5 -0.275,0 -0.5,0.225 -0.5,0.5 0,0.275 0.225,0.5 0.5,0.5 0.275,0 0.5,-0.225 0.5,-0.5 z m -5,-3 c 0,-0.275 -0.225,-0.5 -0.5,-0.5 -0.275,0 -0.5,0.225 -0.5,0.5 0,0.275 0.225,0.5 0.5,0.5 0.275,0 0.5,-0.225 0.5,-0.5 z m -2,-1 c 0,-0.275 -0.225,-0.5 -0.5,-0.5 -0.275,0 -0.5,0.225 -0.5,0.5 0,0.275 0.225,0.5 0.5,0.5 0.275,0 0.5,-0.225 0.5,-0.5 z m -5,-3 c 0,-0.275 -0.225,-0.5 -0.5,-0.5 -0.275,0 -0.5,0.225 -0.5,0.5 0,0.275 0.225,0.5 0.5,0.5 0.275,0 0.5,-0.225 0.5,-0.5 z m -3,-2 c 0,-0.275 -0.225,-0.5 -0.5,-0.5 -0.275,0 -0.5,0.225 -0.5,0.5 0,0.275 0.225,0.5 0.5,0.5 0.275,0 0.5,-0.225 0.5,-0.5 z m -2,-1 c 0,-0.275 -0.225,-0.5 -0.5,-0.5 -0.275,0 -0.5,0.225 -0.5,0.5 0,0.275 0.225,0.5 0.5,0.5 0.275,0 0.5,-0.225 0.5,-0.5 z m -5,-3 c 0,-0.275 -0.225,-0.5 -0.5,-0.5 -0.275,0 -0.5,0.225 -0.5,0.5 0,0.275 0.225,0.5 0.5,0.5 0.275,0 0.5,-0.225 0.5,-0.5 z m -59,-0.94098 c 0,-0.24254 -0.51953,-0.76207 -1.15451,-1.15451 -0.7153,-0.44208 -0.88306,-0.27432 -0.44098,0.44098 0.71244,1.15275 1.59549,1.54767 1.59549,0.71353 z m 56,-1.05902 c 0,-0.275 -0.225,-0.5 -0.5,-0.5 -0.275,0 -0.5,0.225 -0.5,0.5 0,0.275 0.225,0.5 0.5,0.5 0.275,0 0.5,-0.225 0.5,-0.5 z m -3,-2 c 0,-0.275 -0.225,-0.5 -0.5,-0.5 -0.275,0 -0.5,0.225 -0.5,0.5 0,0.275 0.225,0.5 0.5,0.5 0.275,0 0.5,-0.225 0.5,-0.5 z m -61,-2.94098 c 0,-0.24254 -0.51953,-0.76207 -1.15451,-1.15451 -0.7153,-0.44208 -0.88306,-0.27432 -0.44098,0.44098 0.71244,1.15275 1.59549,1.54767 1.59549,0.71353 z m 55,-1.05902 c 0,-0.275 -0.225,-0.5 -0.5,-0.5 -0.275,0 -0.5,0.225 -0.5,0.5 0,0.275 0.225,0.5 0.5,0.5 0.275,0 0.5,-0.225 0.5,-0.5 z m -63,-5 c 0,-0.275 -0.225,-0.5 -0.5,-0.5 -0.275,0 -0.5,0.225 -0.5,0.5 0,0.275 0.225,0.5 0.5,0.5 0.275,0 0.5,-0.225 0.5,-0.5 z m -3,-2 c 0,-0.275 -0.225,-0.5 -0.5,-0.5 -0.275,0 -0.5,0.225 -0.5,0.5 0,0.275 0.225,0.5 0.5,0.5 0.275,0 0.5,-0.225 0.5,-0.5 z m 54,-1 c 0,-0.275 -0.225,-0.5 -0.5,-0.5 -0.275,0 -0.5,0.225 -0.5,0.5 0,0.275 0.225,0.5 0.5,0.5 0.275,0 0.5,-0.225 0.5,-0.5 z m -57,-1 c 0,-0.275 -0.225,-0.5 -0.5,-0.5 -0.275,0 -0.5,0.225 -0.5,0.5 0,0.275 0.225,0.5 0.5,0.5 0.275,0 0.5,-0.225 0.5,-0.5 z m -3,-2 c 0,-0.275 -0.225,-0.5 -0.5,-0.5 -0.275,0 -0.5,0.225 -0.5,0.5 0,0.275 0.225,0.5 0.5,0.5 0.275,0 0.5,-0.225 0.5,-0.5 z m -3,-2 c 0,-0.275 -0.225,-0.5 -0.5,-0.5 -0.275,0 -0.5,0.225 -0.5,0.5 0,0.275 0.225,0.5 0.5,0.5 0.275,0 0.5,-0.225 0.5,-0.5 z m 56,0 c 0,-0.275 -0.225,-0.5 -0.5,-0.5 -0.275,0 -0.5,0.225 -0.5,0.5 0,0.275 0.225,0.5 0.5,0.5 0.275,0 0.5,-0.225 0.5,-0.5 z m -61,-3 c 0,-0.275 -0.225,-0.5 -0.5,-0.5 -0.275,0 -0.5,0.225 -0.5,0.5 0,0.275 0.225,0.5 0.5,0.5 0.275,0 0.5,-0.225 0.5,-0.5 z m -3,-2 c 0,-0.275 -0.225,-0.5 -0.5,-0.5 -0.275,0 -0.5,0.225 -0.5,0.5 0,0.275 0.225,0.5 0.5,0.5 0.275,0 0.5,-0.225 0.5,-0.5 z m -2,-1 c 0,-0.275 -0.225,-0.5 -0.5,-0.5 -0.275,0 -0.5,0.225 -0.5,0.5 0,0.275 0.225,0.5 0.5,0.5 0.275,0 0.5,-0.225 0.5,-0.5 z m -3,-2 c 0,-0.275 -0.225,-0.5 -0.5,-0.5 -0.275,0 -0.5,0.225 -0.5,0.5 0,0.275 0.225,0.5 0.5,0.5 0.275,0 0.5,-0.225 0.5,-0.5 z m -5,-3 c 0,-0.275 -0.225,-0.5 -0.5,-0.5 -0.275,0 -0.5,0.225 -0.5,0.5 0,0.275 0.225,0.5 0.5,0.5 0.275,0 0.5,-0.225 0.5,-0.5 z m -2,-1 c 0,-0.275 -0.225,-0.5 -0.5,-0.5 -0.275,0 -0.5,0.225 -0.5,0.5 0,0.275 0.225,0.5 0.5,0.5 0.275,0 0.5,-0.225 0.5,-0.5 z m -5,-3 c 0,-0.275 -0.225,-0.5 -0.5,-0.5 -0.275,0 -0.5,0.225 -0.5,0.5 0,0.275 0.225,0.5 0.5,0.5 0.275,0 0.5,-0.225 0.5,-0.5 z m -2,-1 c 0,-0.275 -0.225,-0.5 -0.5,-0.5 -0.275,0 -0.5,0.225 -0.5,0.5 0,0.275 0.225,0.5 0.5,0.5 0.275,0 0.5,-0.225 0.5,-0.5 z m -2,-1 c 0,-0.275 -0.225,-0.5 -0.5,-0.5 -0.275,0 -0.5,0.225 -0.5,0.5 0,0.275 0.225,0.5 0.5,0.5 0.275,0 0.5,-0.225 0.5,-0.5 z m -7,-4 c 0,-0.275 -0.225,-0.5 -0.5,-0.5 -0.275,0 -0.5,0.225 -0.5,0.5 0,0.275 0.225,0.5 0.5,0.5 0.275,0 0.5,-0.225 0.5,-0.5 z m -2,-1 c 0,-0.275 -0.225,-0.5 -0.5,-0.5 -0.275,0 -0.5,0.225 -0.5,0.5 0,0.275 0.225,0.5 0.5,0.5 0.275,0 0.5,-0.225 0.5,-0.5 z m -2,-1 c 0,-0.275 -0.225,-0.5 -0.5,-0.5 -0.275,0 -0.5,0.225 -0.5,0.5 0,0.275 0.225,0.5 0.5,0.5 0.275,0 0.5,-0.225 0.5,-0.5 z m -2,-1 c 0,-0.275 -0.225,-0.5 -0.5,-0.5 -0.275,0 -0.5,0.225 -0.5,0.5 0,0.275 0.225,0.5 0.5,0.5 0.275,0 0.5,-0.225 0.5,-0.5 z m -2,-1 c 0,-0.275 -0.225,-0.5 -0.5,-0.5 -0.275,0 -0.5,0.225 -0.5,0.5 0,0.275 0.225,0.5 0.5,0.5 0.275,0 0.5,-0.225 0.5,-0.5 z m -2,-1 c 0,-0.275 -0.225,-0.5 -0.5,-0.5 -0.275,0 -0.5,0.225 -0.5,0.5 0,0.275 0.225,0.5 0.5,0.5 0.275,0 0.5,-0.225 0.5,-0.5 z m -2,-0.94098 c 0,-0.24254 -0.51953,-0.76207 -1.15451,-1.15451 -0.7153,-0.44208 -0.88306,-0.27432 -0.44098,0.44098 0.71244,1.15275 1.59549,1.54767 1.59549,0.71353 z m 6.47519,-11.77574 c 3.13678,-3.4558 8.12977,-9.92092 11.09554,-14.36692 5.44531,-8.16311 9.43754,-16.15754 7.45763,-14.93389 -2.44054,1.50834 -61.89191,-35.27619 -60.54248,-37.45963 0.30071,-0.48655 0.0199,-1.21027 -0.62408,-1.60825 -0.73122,-0.45192 -0.90292,-0.29014 -0.45729,0.4309 1.16755,1.88913 -0.27993,1.3363 -4.99491,-1.90769 -2.44791,-1.68421 -4.20915,-3.45311 -3.91386,-3.9309 0.29528,-0.47779 0.01,-1.19433 -0.63394,-1.59231 -0.73122,-0.45192 -0.90292,-0.29014 -0.45729,0.4309 0.39244,0.63498 0.26352,1.15451 -0.28648,1.15451 -1.00132,0 -2.57393,-1.91336 -2.60272,-3.16667 -0.008,-0.36666 -0.42496,-1.04166 -0.92564,-1.5 -0.52889,-0.48416 -0.60891,-0.30957 -0.19098,0.41667 0.39564,0.6875 0.29789,1.25 -0.21723,1.25 -1.26201,0 -3.30584,-2.54229 -2.60625,-3.24187 0.30682,-0.30682 0.008,-0.89745 -0.66319,-1.3125 -0.78026,-0.48223 -0.96347,-0.33789 -0.50751,0.39986 1.42682,2.30865 -1.02854,1.04099 -6.66051,-3.4387 -3.1658,-2.51809 -5.52096,-4.95865 -5.23369,-5.42347 0.28727,-0.46482 -0.005,-1.17075 -0.64851,-1.56873 -0.73122,-0.45192 -0.90292,-0.29014 -0.45729,0.4309 0.39244,0.63498 0.30671,1.15451 -0.19051,1.15451 -1.27787,0 -4.33572,-3.54494 -3.64965,-4.23102 0.31279,-0.31279 0.0192,-0.9083 -0.65233,-1.32335 -0.78026,-0.48223 -0.96347,-0.33789 -0.50751,0.39986 0.39244,0.63498 0.30671,1.15451 -0.19051,1.15451 -1.23294,0 -4.34734,-3.53333 -3.69202,-4.18865 0.2895,-0.28949 -0.2459,-1.15297 -1.18977,-1.91885 -1.13552,-0.92139 -1.46205,-0.9696 -0.96515,-0.1425 0.41304,0.6875 0.34416,1.25 -0.15306,1.25 -1.21357,0 -4.3523,-3.52836 -3.71005,-4.17062 0.27957,-0.27957 -0.49919,-1.36805 -1.73059,-2.41884 -1.81233,-1.54654 -1.98069,-1.57712 -0.88368,-0.16054 0.74536,0.9625 0.92855,1.75 0.40708,1.75 -1.25393,0 -5.45844,-4.50498 -4.80985,-5.15358 0.27786,-0.27786 -0.69058,-1.59447 -2.1521,-2.92581 -1.46152,-1.33134 -2.33319,-1.85811 -1.93704,-1.17061 0.39614,0.6875 0.3279,1.25 -0.15166,1.25 -1.18441,0 -6.39738,-5.5154 -5.78848,-6.1243 0.2671,-0.2671 -2.7641,-3.6109 -6.736,-7.43067 -7.22163,-6.94503 -7.22163,-6.94503 -0.24845,0.30497 3.83525,3.9875 6.754,7.25 6.48611,7.25 -0.26789,0 -6.55583,-6.18364 -13.97318,-13.74142 -7.417359,-7.55778 -10.561109,-11.04528 -6.986109,-7.75 6.499999,5.99142 6.499999,5.99142 0.531299,-0.25858 -3.282779,-3.4375 -6.087699,-6.25 -6.233149,-6.25 -0.14545,0 -1.45757,2.3625 -2.91583,5.25 -4.16613,8.24941 -8.15994,13.57346 -17.30166,23.06446 -8.865358,9.20408 -8.775418,8.92571 -3.802648,11.7692 0.977897,0.55918 1.470867,1.51364 1.095487,2.12102 -0.41915,0.6782 -0.22316,0.82044 0.50789,0.36862 1.389851,-0.85897 11.364321,5.22011 10.598421,6.45936 -0.28184,0.45603 0.0144,1.15477 0.65839,1.55275 0.78484,0.48506 0.90097,0.28698 0.35226,-0.60084 -1.37752,-2.22887 1.7239,-0.55641 13.01008,7.01579 5.809849,3.89798 10.316639,7.48644 10.015099,7.97434 -0.30155,0.48791 -0.0214,1.21273 0.62256,1.61071 0.73122,0.45192 0.90292,0.29014 0.45729,-0.4309 -1.16755,-1.88913 0.27993,-1.3363 4.99491,1.90769 2.44791,1.68421 4.20915,3.45311 3.91386,3.9309 -0.29528,0.47779 -0.01,1.19433 0.63394,1.59231 0.73122,0.45192 0.90292,0.29014 0.45729,-0.4309 -1.07764,-1.74366 0.26244,-1.39186 3.5119,0.92196 1.60387,1.14205 2.67849,2.46096 2.38806,2.9309 -0.29044,0.46994 -0.001,1.18006 0.64275,1.57804 0.73122,0.45192 0.90292,0.29014 0.45729,-0.4309 -0.39244,-0.63498 -0.26352,-1.15451 0.28648,-1.15451 1.00132,0 2.57393,1.91336 2.60272,3.16667 0.008,0.36666 0.42496,1.04166 0.92564,1.5 0.52889,0.48416 0.60891,0.30957 0.19098,-0.41667 -0.39564,-0.6875 -0.26934,-1.25 0.28066,-1.25 1.00132,0 2.57393,1.91336 2.60272,3.16667 0.008,0.36666 0.42496,1.04166 0.92564,1.5 0.53745,0.492 0.58284,0.26819 0.1108,-0.5464 -0.5501,-0.9493 -0.36614,-1.22227 0.58967,-0.875 0.76406,0.2776 1.29109,0.96782 1.17117,1.53382 -0.11992,0.566 0.55508,1.63475 1.5,2.375 1.55009,1.21435 1.58387,1.17485 0.34559,-0.40409 -0.81761,-1.04253 -0.94254,-1.75 -0.30902,-1.75 1.15044,0 2.61369,1.88869 2.7116,3.5 0.0334,0.55 0.65018,0.87171 1.37057,0.71491 1.63136,-0.35507 4.25544,1.72342 3.57197,2.8293 -0.27792,0.44968 0.0216,1.14322 0.66552,1.5412 0.73122,0.45192 0.90292,0.29014 0.45729,-0.4309 -0.39244,-0.63498 -0.29207,-1.15451 0.22305,-1.15451 1.05722,0 3.76148,2.9893 3.53146,3.90369 -0.0825,0.32797 0.30237,0.46802 0.85526,0.31122 1.36186,-0.38621 3.89765,1.80956 3.26742,2.8293 -0.27792,0.44968 0.0216,1.14322 0.66552,1.5412 0.73122,0.45192 0.90292,0.29014 0.45729,-0.4309 -0.39244,-0.63498 -0.29207,-1.15451 0.22305,-1.15451 1.22056,0 3.31639,2.53174 2.64862,3.19951 -0.28352,0.28352 0.25676,1.14211 1.20063,1.90799 1.13552,0.92139 1.46205,0.9696 0.96515,0.1425 -0.41304,-0.6875 -0.32952,-1.25 0.1856,-1.25 1.22056,0 3.31639,2.53174 2.64862,3.19951 -0.28352,0.28352 0.25676,1.14211 1.20063,1.90799 1.13552,0.92139 1.46205,0.9696 0.96515,0.1425 -0.41304,-0.6875 -0.34416,-1.25 0.15306,-1.25 1.23294,0 4.34734,3.53333 3.69202,4.18865 -0.2895,0.28949 0.2459,1.15297 1.18977,1.91885 1.13552,0.92139 1.46205,0.9696 0.96515,0.1425 -0.41304,-0.6875 -0.32952,-1.25 0.1856,-1.25 1.20263,0 3.32091,2.52722 2.66665,3.18147 -0.2736,0.2736 0.51005,1.3572 1.74145,2.40799 1.81233,1.54654 1.98069,1.57712 0.88368,0.16054 -0.74536,-0.9625 -0.92855,-1.75 -0.40708,-1.75 1.28562,0 5.45035,4.51307 4.78174,5.18169 -0.29332,0.29332 0.23894,1.15993 1.18281,1.92581 1.13552,0.92139 1.46205,0.9696 0.96515,0.1425 -1.19547,-1.98987 0.8785,-1.44733 2.86706,0.75 0.99549,1.1 1.44549,2 1,2 -0.44549,0 -0.023,0.86965 0.93897,1.93256 0.96192,1.06291 2.2833,1.72751 2.93642,1.47689 0.65311,-0.25063 2.74832,1.23795 4.65604,3.30794 3.10633,3.37057 3.15526,3.50353 0.46857,1.27312 -3,-2.49051 -3,-2.49051 -0.64355,0.18726 1.29605,1.47277 2.89265,2.472 3.548,2.22052 0.65535,-0.25148 2.26089,0.68103 3.56786,2.07224 1.30698,1.39121 1.99444,2.52947 1.52769,2.52947 -0.46675,0 0.17772,1.09249 1.43214,2.42777 1.25442,1.33527 2.81696,2.222 3.47231,1.97052 0.65535,-0.25148 2.26089,0.68103 3.56786,2.07224 1.30698,1.39121 1.99444,2.52947 1.52769,2.52947 -0.46675,0 0.18991,1.10548 1.45924,2.45662 2.14396,2.28213 2.50336,2.35552 5.06029,1.03328 1.51383,-0.78283 5.31888,-4.25081 8.45566,-7.70662 z m -13.0702,5.96672 c -1.90499,-2.25 -1.90499,-2.25 0.34501,-0.34501 1.2375,1.04774 2.25,2.06024 2.25,2.25 0,0.80025 -0.80479,0.20945 -2.59501,-1.90499 z m -10,-9 c -1.90499,-2.25 -1.90499,-2.25 0.34501,-0.34501 2.11444,1.79022 2.70524,2.59501 1.90499,2.59501 -0.18976,0 -1.20226,-1.0125 -2.25,-2.25 z m -17.53255,-15.5 c -1.24387,-1.58606 -1.2085,-1.62143 0.37756,-0.37756 1.66575,1.30637 2.19548,2.12756 1.37244,2.12756 -0.20765,0 -0.99515,-0.7875 -1.75,-1.75 z m -6.87244,-5.75 c 0,-0.275 0.225,-0.5 0.5,-0.5 0.275,0 0.5,0.225 0.5,0.5 0,0.275 -0.225,0.5 -0.5,0.5 -0.275,0 -0.5,-0.225 -0.5,-0.5 z m -7,-6 c 0,-0.275 0.225,-0.5 0.5,-0.5 0.275,0 0.5,0.225 0.5,0.5 0,0.275 -0.225,0.5 -0.5,0.5 -0.275,0 -0.5,-0.225 -0.5,-0.5 z m -5,-4 c 0,-0.275 0.225,-0.5 0.5,-0.5 0.275,0 0.5,0.225 0.5,0.5 0,0.275 -0.225,0.5 -0.5,0.5 -0.275,0 -0.5,-0.225 -0.5,-0.5 z m -6,-5 c 0,-0.275 0.225,-0.5 0.5,-0.5 0.275,0 0.5,0.225 0.5,0.5 0,0.275 -0.225,0.5 -0.5,0.5 -0.275,0 -0.5,-0.225 -0.5,-0.5 z m -5,-4 c 0,-0.275 0.225,-0.5 0.5,-0.5 0.275,0 0.5,0.225 0.5,0.5 0,0.275 -0.225,0.5 -0.5,0.5 -0.275,0 -0.5,-0.225 -0.5,-0.5 z m -9,-7 c 0,-0.275 0.225,-0.5 0.5,-0.5 0.275,0 0.5,0.225 0.5,0.5 0,0.275 -0.225,0.5 -0.5,0.5 -0.275,0 -0.5,-0.225 -0.5,-0.5 z m -9,-7 c 0,-0.275 0.225,-0.5 0.5,-0.5 0.275,0 0.5,0.225 0.5,0.5 0,0.275 -0.225,0.5 -0.5,0.5 -0.275,0 -0.5,-0.225 -0.5,-0.5 z m 4,-41 c 0,-0.275 0.225,-0.5 0.5,-0.5 0.275,0 0.5,0.225 0.5,0.5 0,0.275 -0.225,0.5 -0.5,0.5 -0.275,0 -0.5,-0.225 -0.5,-0.5 z m -6,-5 c 0,-0.275 0.225,-0.5 0.5,-0.5 0.275,0 0.5,0.225 0.5,0.5 0,0.275 -0.225,0.5 -0.5,0.5 -0.275,0 -0.5,-0.225 -0.5,-0.5 z m -8.12756,-7.25 c -1.24387,-1.58606 -1.2085,-1.62143 0.37756,-0.37756 1.66575,1.30637 2.19548,2.12756 1.37244,2.12756 -0.20765,0 -0.99515,-0.7875 -1.75,-1.75 z m 97.62756,114.75 c 2.14824,-2.2 3.6809,-4 3.4059,-4 -0.275,0 -2.25766,1.8 -4.4059,4 -2.14824,2.2 -3.6809,4 -3.4059,4 0.275,0 2.25766,-1.8 4.4059,-4 z m 8.5,-9.5 c 0,-0.275 -0.225,-0.5 -0.5,-0.5 -0.275,0 -0.5,0.225 -0.5,0.5 0,0.275 0.225,0.5 0.5,0.5 0.275,0 0.5,-0.225 0.5,-0.5 z m 3,-4 c 0,-0.275 -0.225,-0.5 -0.5,-0.5 -0.275,0 -0.5,0.225 -0.5,0.5 0,0.275 0.225,0.5 0.5,0.5 0.275,0 0.5,-0.225 0.5,-0.5 z m 2,-3 c 0,-0.275 -0.225,-0.5 -0.5,-0.5 -0.275,0 -0.5,0.225 -0.5,0.5 0,0.275 0.225,0.5 0.5,0.5 0.275,0 0.5,-0.225 0.5,-0.5 z m 2,-3 c 0,-0.275 -0.225,-0.5 -0.5,-0.5 -0.275,0 -0.5,0.225 -0.5,0.5 0,0.275 0.225,0.5 0.5,0.5 0.275,0 0.5,-0.225 0.5,-0.5 z m 2,-3 c 0,-0.275 -0.225,-0.5 -0.5,-0.5 -0.275,0 -0.5,0.225 -0.5,0.5 0,0.275 0.225,0.5 0.5,0.5 0.275,0 0.5,-0.225 0.5,-0.5 z m 1,-2 c 0,-0.275 -0.225,-0.5 -0.5,-0.5 -0.275,0 -0.5,0.225 -0.5,0.5 0,0.275 0.225,0.5 0.5,0.5 0.275,0 0.5,-0.225 0.5,-0.5 z m 3,-5 c 0,-0.275 -0.225,-0.5 -0.5,-0.5 -0.275,0 -0.5,0.225 -0.5,0.5 0,0.275 0.225,0.5 0.5,0.5 0.275,0 0.5,-0.225 0.5,-0.5 z m -4,-6 c 0,-0.275 -0.225,-0.5 -0.5,-0.5 -0.275,0 -0.5,0.225 -0.5,0.5 0,0.275 0.225,0.5 0.5,0.5 0.275,0 0.5,-0.225 0.5,-0.5 z m -2,-1 c 0,-0.275 -0.225,-0.5 -0.5,-0.5 -0.275,0 -0.5,0.225 -0.5,0.5 0,0.275 0.225,0.5 0.5,0.5 0.275,0 0.5,-0.225 0.5,-0.5 z m -2,-1 c 0,-0.275 -0.225,-0.5 -0.5,-0.5 -0.275,0 -0.5,0.225 -0.5,0.5 0,0.275 0.225,0.5 0.5,0.5 0.275,0 0.5,-0.225 0.5,-0.5 z m -3,-2 c 0,-0.275 -0.225,-0.5 -0.5,-0.5 -0.275,0 -0.5,0.225 -0.5,0.5 0,0.275 0.225,0.5 0.5,0.5 0.275,0 0.5,-0.225 0.5,-0.5 z m -2,-1 c 0,-0.275 -0.225,-0.5 -0.5,-0.5 -0.275,0 -0.5,0.225 -0.5,0.5 0,0.275 0.225,0.5 0.5,0.5 0.275,0 0.5,-0.225 0.5,-0.5 z m -2,-1 c 0,-0.275 -0.225,-0.5 -0.5,-0.5 -0.275,0 -0.5,0.225 -0.5,0.5 0,0.275 0.225,0.5 0.5,0.5 0.275,0 0.5,-0.225 0.5,-0.5 z m -3,-2 c 0,-0.275 -0.225,-0.5 -0.5,-0.5 -0.275,0 -0.5,0.225 -0.5,0.5 0,0.275 0.225,0.5 0.5,0.5 0.275,0 0.5,-0.225 0.5,-0.5 z m -2,-1 c 0,-0.275 -0.225,-0.5 -0.5,-0.5 -0.275,0 -0.5,0.225 -0.5,0.5 0,0.275 0.225,0.5 0.5,0.5 0.275,0 0.5,-0.225 0.5,-0.5 z m -3,-2 c 0,-0.275 -0.225,-0.5 -0.5,-0.5 -0.275,0 -0.5,0.225 -0.5,0.5 0,0.275 0.225,0.5 0.5,0.5 0.275,0 0.5,-0.225 0.5,-0.5 z m -3,-2 c 0,-0.275 -0.225,-0.5 -0.5,-0.5 -0.275,0 -0.5,0.225 -0.5,0.5 0,0.275 0.225,0.5 0.5,0.5 0.275,0 0.5,-0.225 0.5,-0.5 z m -2,-1 c 0,-0.275 -0.225,-0.5 -0.5,-0.5 -0.275,0 -0.5,0.225 -0.5,0.5 0,0.275 0.225,0.5 0.5,0.5 0.275,0 0.5,-0.225 0.5,-0.5 z m -3,-2 c 0,-0.275 -0.225,-0.5 -0.5,-0.5 -0.275,0 -0.5,0.225 -0.5,0.5 0,0.275 0.225,0.5 0.5,0.5 0.275,0 0.5,-0.225 0.5,-0.5 z m -2,-1 c 0,-0.275 -0.225,-0.5 -0.5,-0.5 -0.275,0 -0.5,0.225 -0.5,0.5 0,0.275 0.225,0.5 0.5,0.5 0.275,0 0.5,-0.225 0.5,-0.5 z m -3,-2 c 0,-0.275 -0.225,-0.5 -0.5,-0.5 -0.275,0 -0.5,0.225 -0.5,0.5 0,0.275 0.225,0.5 0.5,0.5 0.275,0 0.5,-0.225 0.5,-0.5 z m -3,-2 c 0,-0.275 -0.225,-0.5 -0.5,-0.5 -0.275,0 -0.5,0.225 -0.5,0.5 0,0.275 0.225,0.5 0.5,0.5 0.275,0 0.5,-0.225 0.5,-0.5 z m -2,-1 c 0,-0.275 -0.225,-0.5 -0.5,-0.5 -0.275,0 -0.5,0.225 -0.5,0.5 0,0.275 0.225,0.5 0.5,0.5 0.275,0 0.5,-0.225 0.5,-0.5 z m -3,-2 c 0,-0.275 -0.225,-0.5 -0.5,-0.5 -0.275,0 -0.5,0.225 -0.5,0.5 0,0.275 0.225,0.5 0.5,0.5 0.275,0 0.5,-0.225 0.5,-0.5 z m -3,-1.94098 c 0,-0.24254 -0.51953,-0.76207 -1.15451,-1.15451 -0.7153,-0.44208 -0.88306,-0.27432 -0.44098,0.44098 0.71244,1.15275 1.59549,1.54767 1.59549,0.71353 z m -3,-2.05902 c 0,-0.275 -0.225,-0.5 -0.5,-0.5 -0.275,0 -0.5,0.225 -0.5,0.5 0,0.275 0.225,0.5 0.5,0.5 0.275,0 0.5,-0.225 0.5,-0.5 z m -3,-2 c 0,-0.275 -0.225,-0.5 -0.5,-0.5 -0.275,0 -0.5,0.225 -0.5,0.5 0,0.275 0.225,0.5 0.5,0.5 0.275,0 0.5,-0.225 0.5,-0.5 z m -3,-2 c 0,-0.275 -0.225,-0.5 -0.5,-0.5 -0.275,0 -0.5,0.225 -0.5,0.5 0,0.275 0.225,0.5 0.5,0.5 0.275,0 0.5,-0.225 0.5,-0.5 z m -3,-2 c 0,-0.275 -0.225,-0.5 -0.5,-0.5 -0.275,0 -0.5,0.225 -0.5,0.5 0,0.275 0.225,0.5 0.5,0.5 0.275,0 0.5,-0.225 0.5,-0.5 z m -68,-5 c 0,-0.275 -0.225,-0.5 -0.5,-0.5 -0.275,0 -0.5,0.225 -0.5,0.5 0,0.275 0.225,0.5 0.5,0.5 0.275,0 0.5,-0.225 0.5,-0.5 z m 61,0 c 0,-0.275 -0.225,-0.5 -0.5,-0.5 -0.275,0 -0.5,0.225 -0.5,0.5 0,0.275 0.225,0.5 0.5,0.5 0.275,0 0.5,-0.225 0.5,-0.5 z m -3,-1.94098 c 0,-0.24254 -0.51953,-0.76207 -1.15451,-1.15451 -0.7153,-0.44208 -0.88306,-0.27432 -0.44098,0.44098 0.71244,1.15275 1.59549,1.54767 1.59549,0.71353 z m -65,-3.05902 c 0,-0.275 -0.225,-0.5 -0.5,-0.5 -0.275,0 -0.5,0.225 -0.5,0.5 0,0.275 0.225,0.5 0.5,0.5 0.275,0 0.5,-0.225 0.5,-0.5 z m -3,-2 c 0,-0.275 -0.225,-0.5 -0.5,-0.5 -0.275,0 -0.5,0.225 -0.5,0.5 0,0.275 0.225,0.5 0.5,0.5 0.275,0 0.5,-0.225 0.5,-0.5 z m -6,-3.94098 c 0,-0.24254 -0.51953,-0.76207 -1.15451,-1.15451 -0.7153,-0.44208 -0.88306,-0.27432 -0.44098,0.44098 0.71244,1.15275 1.59549,1.54767 1.59549,0.71353 z m 59,-2 c 0,-0.24254 -0.51953,-0.76207 -1.15451,-1.15451 -0.7153,-0.44208 -0.88306,-0.27432 -0.44098,0.44098 0.71244,1.15275 1.59549,1.54767 1.59549,0.71353 z m -63,-1.05902 c 0,-0.275 -0.225,-0.5 -0.499999,-0.5 -0.275,0 -0.5,0.225 -0.5,0.5 0,0.275 0.225,0.5 0.5,0.5 0.274999,0 0.499999,-0.225 0.499999,-0.5 z m -2.999999,-2 c 0,-0.275 -0.225,-0.5 -0.5,-0.5 -0.275,0 -0.5,0.225 -0.5,0.5 0,0.275 0.225,0.5 0.5,0.5 0.275,0 0.5,-0.225 0.5,-0.5 z m 60.999999,-0.94098 c 0,-0.24254 -0.51953,-0.76207 -1.15451,-1.15451 -0.7153,-0.44208 -0.88306,-0.27432 -0.44098,0.44098 0.71244,1.15275 1.59549,1.54767 1.59549,0.71353 z m -63.999999,-1.05902 c 0,-0.275 -0.225,-0.5 -0.5,-0.5 -0.275,0 -0.5,0.225 -0.5,0.5 0,0.275 0.225,0.5 0.5,0.5 0.275,0 0.5,-0.225 0.5,-0.5 z m -3,-2 c 0,-0.275 -0.225,-0.5 -0.5,-0.5 -0.275,0 -0.5,0.225 -0.5,0.5 0,0.275 0.225,0.5 0.5,0.5 0.275,0 0.5,-0.225 0.5,-0.5 z m -3,-2 c 0,-0.275 -0.225,-0.5 -0.5,-0.5 -0.275,0 -0.5,0.225 -0.5,0.5 0,0.275 0.225,0.5 0.5,0.5 0.275,0 0.5,-0.225 0.5,-0.5 z m -3,-2 c 0,-0.275 -0.225,-0.5 -0.5,-0.5 -0.275,0 -0.5,0.225 -0.5,0.5 0,0.275 0.225,0.5 0.5,0.5 0.275,0 0.5,-0.225 0.5,-0.5 z m -5,-3 c 0,-0.275 -0.225,-0.5 -0.5,-0.5 -0.275,0 -0.5,0.225 -0.5,0.5 0,0.275 0.225,0.5 0.5,0.5 0.275,0 0.5,-0.225 0.5,-0.5 z m -3,-2 c 0,-0.275 -0.225,-0.5 -0.5,-0.5 -0.275,0 -0.5,0.225 -0.5,0.5 0,0.275 0.225,0.5 0.5,0.5 0.275,0 0.5,-0.225 0.5,-0.5 z m -3,-2 c 0,-0.275 -0.225,-0.5 -0.5,-0.5 -0.275,0 -0.5,0.225 -0.5,0.5 0,0.275 0.225,0.5 0.5,0.5 0.275,0 0.5,-0.225 0.5,-0.5 z m -4.999998,-3 c 0,-0.275 -0.225,-0.5 -0.5,-0.5 -0.275,0 -0.5,0.225 -0.5,0.5 0,0.275 0.225,0.5 0.5,0.5 0.275,0 0.5,-0.225 0.5,-0.5 z m -3,-2 c 0,-0.275 -0.225,-0.5 -0.5,-0.5 -0.275,0 -0.5,0.225 -0.5,0.5 0,0.275 0.225,0.5 0.5,0.5 0.275,0 0.5,-0.225 0.5,-0.5 z m -2,-1 c 0,-0.275 -0.225,-0.5 -0.5,-0.5 -0.275,0 -0.5,0.225 -0.5,0.5 0,0.275 0.225,0.5 0.5,0.5 0.275,0 0.5,-0.225 0.5,-0.5 z m 6.499997,-9.5 c 3.820501,-3.85 6.721361,-7 6.446361,-7 -0.275,0 -3.62586,3.15 -7.446358,7 -3.8205,3.85 -6.72136,7 -6.44636,7 0.275,0 3.62586,-3.15 7.446357,-7 z m -1.900817,-1.06381 c 9.500688,-9.36604 17.725818,-20.822 19.812558,-27.59493 0.57964,-1.88133 -0.30514,-2.69434 -6.88504,-6.32652 -4.15258,-2.29228 -7.31253,-4.55225 -7.02211,-5.02216 0.29042,-0.46991 0.001,-1.18001 -0.64279,-1.57799 -0.73122,-0.45192 -0.90292,-0.29014 -0.45729,0.4309 0.88677,1.43483 0.0529,1.46966 -2.498261,0.10434 -1.07925,-0.5776 -1.655127,-1.54713 -1.27975,-2.15451 0.40736,-0.65913 0.22541,-0.82183 -0.451317,-0.40358 -1.55592,0.9616 -5.39375,-1.22906 -4.54868,-2.59642 0.41559,-0.67244 0.22386,-0.82087 -0.49023,-0.37954 -1.36002,0.84054 -8.39267,-3.19189 -7.65326,-4.38828 0.27251,-0.44093 -0.28719,-0.74 -1.24377,-0.66459 -0.95658,0.0754 -1.64439,-0.37247 -1.52846,-0.99526 0.11594,-0.6228 -0.55906,-1.0728 -1.5,-1 -0.94093,0.0728 -1.61593,-0.37721 -1.5,-1 0.11594,-0.6228 -0.54821,-1.0728 -1.47587,-1 -0.92767,0.0728 -1.69752,-0.39265 -1.71079,-1.03432 -0.0133,-0.64166 -0.43377,-1.54166 -0.93445,-2 -0.53745,-0.492 -0.58284,-0.26819 -0.1108,0.5464 0.54685,0.9437 0.3605,1.23339 -0.58967,0.91667 -0.76406,-0.25469 -1.3892,-0.95057 -1.3892,-1.5464 0,-0.59583 -0.40965,-1.45833 -0.91033,-1.91667 -0.53745,-0.492 -0.58284,-0.26819 -0.1108,0.5464 0.54685,0.9437 0.3605,1.23339 -0.58967,0.91667 -0.76406,-0.25469 -1.3892,-0.95057 -1.3892,-1.5464 0,-0.59583 -0.40965,-1.45833 -0.91033,-1.91667 -0.52889,-0.48416 -0.60891,-0.30958 -0.19098,0.41667 0.39564,0.6875 0.29789,1.25 -0.21723,1.25 -1.26214,0 -3.30581,-2.54232 -2.60612,-3.24201 0.3069,-0.30689 -0.24865,-0.49049 -1.23455,-0.40799 -0.9859,0.0825 -1.8034,-0.375 -1.81667,-1.01667 -0.0133,-0.64166 -0.43377,-1.54166 -0.93445,-2 -0.52889,-0.48416 -0.60891,-0.30958 -0.19098,0.41667 0.39564,0.6875 0.26934,1.25 -0.28066,1.25 -1.00132,0 -2.57393,-1.91336 -2.60272,-3.16667 -0.008,-0.36666 -0.42496,-1.04166 -0.92564,-1.5 -0.52889,-0.48416 -0.60891,-0.30958 -0.19098,0.41667 0.39564,0.6875 0.26934,1.25 -0.28066,1.25 -1.00132,0 -2.57393,-1.91336 -2.60272,-3.16667 -0.008,-0.36666 -0.42496,-1.04166 -0.92564,-1.5 -0.52889,-0.48416 -0.60891,-0.30958 -0.19098,0.41667 0.39564,0.6875 0.26934,1.25 -0.28066,1.25 -1.00132,0 -2.57393,-1.91336 -2.60272,-3.16667 -0.008,-0.36666 -0.42496,-1.04166 -0.92564,-1.5 -0.52889,-0.48416 -0.60891,-0.30958 -0.19098,0.41667 0.39564,0.6875 0.26934,1.25 -0.28066,1.25 -1.00132,0 -2.57393,-1.91336 -2.60272,-3.16667 -0.008,-0.36666 -0.42496,-1.04166 -0.92564,-1.5 -0.52889,-0.48416 -0.60891,-0.30958 -0.19098,0.41667 0.39564,0.6875 0.31253,1.25 -0.18468,1.25 -1.27788,0 -4.33574,-3.54494 -3.64966,-4.23102 0.31279,-0.31279 0.0192,-0.9083 -0.65233,-1.32335 -0.78026,-0.48223 -0.96347,-0.33789 -0.50751,0.39986 0.39244,0.63498 0.30671,1.15451 -0.1905,1.15451 -1.23295,0 -4.3473496,-3.53333 -3.6920296,-4.18865 0.28949,-0.28949 -0.2459,-1.15297 -1.18977,-1.91885 -1.13552,-0.92139 -1.46206,-0.9696 -0.96515,-0.1425 1.37897,2.2953 -0.98703,1.28523 -3.44275,-1.46974 -1.33337,-1.49586 -1.63681,-2.11575 -0.67431,-1.37755 2.49046,1.91008 2.17119,0.7767 -0.42189,-1.49772 -1.19455,-1.04775 -1.84298999,-1.34249 -1.44098999,-0.65499 0.40199999,0.6875 0.32409999,1.25 -0.17311,1.25 -1.20271,0 -4.35509001,-3.52558 -3.72014001,-4.16054 0.27404,-0.27403 -0.69754,-1.58752 -2.15906,-2.91885 -1.46152,-1.33134 -2.33319,-1.85811 -1.93704,-1.17061 1.24755,2.16509 -0.94841,1.35722 -3.3977704,-1.25 -1.29174,-1.375 -1.95691,-2.5 -1.47815,-2.5 0.47877,0 -0.6391,-1.55749 -2.48414,-3.46109 -1.84504,-1.9036 -3.72208,-3.23398 -4.17121,-2.9564 -1.2178,0.75264 -9.94529,-7.646 -9.19944,-8.85281 0.35308,-0.57129 0.19373,-0.7617 -0.3541,-0.42312 -0.54783,0.33858 -2.52986,-1.05345 -4.40451,-3.0934 -3.40845,-3.70899 -3.40845,-3.70899 0.0916,-0.71108 3.5,2.9979 3.5,2.9979 0.5729,-0.24167 -1.6099,-1.78176 -3.14838,-3.01828 -3.41885,-2.74782 -0.27046,0.27047 -1.27995,-0.22156 -2.24331,-1.09339 -1.610511,-1.45749 -1.842551,-1.41515 -2.88133,0.52582 -0.62137,1.16104 -1.62671,1.80384 -2.23409,1.42846 -0.65913,-0.40736 -0.82183,-0.22541 -0.40358,0.45132 0.89416,1.4468 -1.18311,5.42215 -2.43046,4.65125 -0.5161,-0.31897 -0.68785,0.0729 -0.38165,0.87084 0.30619,0.79793 0.007,1.79083 -0.66596,2.20645 -0.8483,0.52427 -0.97319,0.3256 -0.40785,-0.64885 0.47472,-0.81826 0.44018,-1.062 -0.0827,-0.58393 -0.49367,0.45132 -0.90331,1.57632 -0.91033,2.5 -0.007,0.92368 -0.55906,1.57232 -1.22676,1.44142 -0.66771,-0.13091 -0.98934,0.34749 -0.71474,1.06309 0.27461,0.71561 -0.52133,2.17271 -1.76875,3.23801 -2.25321,1.92424 -2.25834,1.92383 -0.78527,-0.0631 1.36084,-1.83555 1.34376,-1.89121 -0.20779,-0.67689 -0.92981,0.72771 -1.48509,1.85856 -1.23396,2.51299 0.25113,0.65443 -2.57207,4.10903 -6.27376,7.67689 -3.7017,3.56786 -5.88917,5.47451 -4.86105,4.23701 2.61025,-3.14184 1.4284,-2.82131 -1.51636,0.41125 -1.33337,1.46369 -1.86181,2.33713 -1.17431,1.94098 0.6875,-0.39614 1.25,-0.32036 1.25,0.16841 0,0.48878 4.73378,3.4691 10.51951,6.62294 6.40355,3.49062 10.25579,6.16097 9.84549,6.82485 -0.40957,0.66271 -0.20933,0.80339 0.51039,0.35858 1.59634,-0.98659 10.36878,4.2189 9.4943,5.63383 -0.41539,0.67211 -0.21686,0.81274 0.5117,0.36246 1.54567,-0.95527 11.32104,5.29014 10.46023,6.68297 -0.38919,0.62972 -0.16905,0.75511 0.54785,0.31204 1.43064,-0.88418 6.41331,2.13276 5.62608,3.40652 -0.30149,0.48784 -0.0213,1.2126 0.62265,1.61058 0.77343,0.47801 0.90143,0.28773 0.37711,-0.56063 -0.52908,-0.85608 -0.33054,-1.12986 0.59549,-0.82118 0.76406,0.25469 1.3892,0.95057 1.3892,1.5464 0,0.59583 0.40965,1.45833 0.91032,1.91667 0.5289,0.48416 0.60892,0.30957 0.19099,-0.41667 -1.13367,-1.96996 0.19153,-1.48861 4.9890904,1.8122 2.44791,1.68421 4.20915,3.45311 3.91386,3.9309 -0.29528,0.47779 -0.01,1.19433 0.63394,1.59231 0.73122,0.45192 0.90292,0.29014 0.45729,-0.4309 -0.39244,-0.63498 -0.26352,-1.15451 0.28648,-1.15451 1.00132,0 2.57393,1.91336 2.60272,3.16667 0.008,0.36666 0.42496,1.04166 0.92564,1.5 0.52889001,0.48416 0.60891001,0.30957 0.19098001,-0.41667 -0.39564001,-0.6875 -0.29789001,-1.25 0.21723,-1.25 1.22056,0 3.31638999,2.53174 2.64861999,3.19951 -0.28352,0.28352 0.28288,1.14211 1.25867,1.90799 1.61326,1.26621 1.6497,1.23378 0.40172,-0.3575 -0.75484,-0.9625 -0.93708,-1.75 -0.40498,-1.75 1.27911,0 4.42988,3.51422 3.75545,4.18865 -0.2895,0.28949 0.27202,1.15297 1.24781,1.91885 1.61326,1.26621 1.6497,1.23378 0.40172,-0.3575 -0.75484,-0.9625 -0.93708,-1.75 -0.40498,-1.75 1.27911,0 4.4298796,3.51422 3.7554496,4.18865 -0.2895,0.28949 0.27202,1.15297 1.24781,1.91885 1.61326,1.26621 1.6497,1.23378 0.40172,-0.3575 -0.75484,-0.9625 -0.94578,-1.75 -0.42431,-1.75 1.28562,0 5.45036,4.51307 4.78174,5.18169 -0.29332,0.29332 0.26506,1.15993 1.24085,1.92581 1.61326,1.26621 1.6497,1.23378 0.40172,-0.3575 -0.75484,-0.9625 -0.95153,-1.75 -0.43709,-1.75 1.24982,0 6.47496,5.50124 5.83397,6.14223 -0.27696,0.27697 0.9526,1.82077 2.73237,3.43067 3.13394,2.83484 3.15964,2.84043 0.81525,0.1771 -4.55615,-5.17599 -0.51676,-2.7574 5.42795,3.25 3.26557,3.3 5.5184,6 5.00629,6 -0.51211,0 1.27485,2.23963 3.97101,4.97696 2.69617,2.73732 5.12835,4.75072 5.40486,4.47421 0.63749,-0.63748 11.11784,9.65605 11.11784,10.91966 0,0.51653 -1.0125,0.0851 -2.25,-0.95869 -2.18789,-1.84544 -2.18568,-1.82489 0.0801,0.74477 1.28157,1.45343 2.98493,2.5465 3.78523,2.42904 0.8003,-0.11746 4.39302,-3.10985 7.98381,-6.64976 z m -9.59918,5.56381 c 0,-0.275 0.225,-0.5 0.5,-0.5 0.275,0 0.5,0.225 0.5,0.5 0,0.275 -0.225,0.5 -0.5,0.5 -0.275,0 -0.5,-0.225 -0.5,-0.5 z m -16,-17 c -2.42903,-2.475 -4.19142,-4.5 -3.91642,-4.5 0.275,0 2.48739,2.025 4.91642,4.5 2.42903,2.475 4.19142,4.5 3.91642,4.5 -0.275,0 -2.48739,-2.025 -4.91642,-4.5 z m -18,-17 c 0,-0.275 0.225,-0.5 0.5,-0.5 0.275,0 0.5,0.225 0.5,0.5 0,0.275 -0.225,0.5 -0.5,0.5 -0.275,0 -0.5,-0.225 -0.5,-0.5 z m -17.9999996,-57 c 0,-0.275 0.225,-0.5 0.5,-0.5 0.275,0 0.5,0.225 0.5,0.5 0,0.275 -0.225,0.5 -0.5,0.5 -0.275,0 -0.5,-0.225 -0.5,-0.5 z m -13.12756,-11.25 c -1.24387,-1.58606 -1.2085,-1.62143 0.37756,-0.37756 1.66575,1.30637 2.19548,2.12756 1.37244,2.12756 -0.20765,0 -0.99515,-0.7875 -1.75,-1.75 z m -10.4353504,-9.5 c -2.93709,-3.25 -2.93709,-3.25 0.31291,-0.31291 1.7875,1.6154 3.25,3.0779 3.25,3.25 0,0.77256 -0.82513,0.0924 -3.56291,-2.93709 z m 97.562908,95.75 c 0,-0.275 -0.225,-0.5 -0.5,-0.5 -0.275,0 -0.5,0.225 -0.5,0.5 0,0.275 0.225,0.5 0.5,0.5 0.275,0 0.5,-0.225 0.5,-0.5 z m 3,-4 c 0,-0.275 -0.225,-0.5 -0.5,-0.5 -0.275,0 -0.5,0.225 -0.5,0.5 0,0.275 0.225,0.5 0.5,0.5 0.275,0 0.5,-0.225 0.5,-0.5 z m 2,-3 c 0,-0.275 -0.225,-0.5 -0.5,-0.5 -0.275,0 -0.5,0.225 -0.5,0.5 0,0.275 0.225,0.5 0.5,0.5 0.275,0 0.5,-0.225 0.5,-0.5 z m 1,-2 c 0,-0.275 -0.225,-0.5 -0.5,-0.5 -0.275,0 -0.5,0.225 -0.5,0.5 0,0.275 0.225,0.5 0.5,0.5 0.275,0 0.5,-0.225 0.5,-0.5 z m 3,-6 c 0,-0.275 -0.225,-0.5 -0.5,-0.5 -0.275,0 -0.5,0.225 -0.5,0.5 0,0.275 0.225,0.5 0.5,0.5 0.275,0 0.5,-0.225 0.5,-0.5 z m 1,-2 c 0,-0.275 -0.225,-0.5 -0.5,-0.5 -0.275,0 -0.5,0.225 -0.5,0.5 0,0.275 0.225,0.5 0.5,0.5 0.275,0 0.5,-0.225 0.5,-0.5 z m -1,-4 c 0,-0.275 -0.225,-0.5 -0.5,-0.5 -0.275,0 -0.5,0.225 -0.5,0.5 0,0.275 0.225,0.5 0.5,0.5 0.275,0 0.5,-0.225 0.5,-0.5 z m -2,-1 c 0,-0.275 -0.225,-0.5 -0.5,-0.5 -0.275,0 -0.5,0.225 -0.5,0.5 0,0.275 0.225,0.5 0.5,0.5 0.275,0 0.5,-0.225 0.5,-0.5 z m -2,-1 c 0,-0.275 -0.225,-0.5 -0.5,-0.5 -0.275,0 -0.5,0.225 -0.5,0.5 0,0.275 0.225,0.5 0.5,0.5 0.275,0 0.5,-0.225 0.5,-0.5 z m -2,-1 c 0,-0.275 -0.225,-0.5 -0.5,-0.5 -0.275,0 -0.5,0.225 -0.5,0.5 0,0.275 0.225,0.5 0.5,0.5 0.275,0 0.5,-0.225 0.5,-0.5 z m -5,-3 c 0,-0.275 -0.225,-0.5 -0.5,-0.5 -0.275,0 -0.5,0.225 -0.5,0.5 0,0.275 0.225,0.5 0.5,0.5 0.275,0 0.5,-0.225 0.5,-0.5 z m -2,-1 c 0,-0.275 -0.225,-0.5 -0.5,-0.5 -0.275,0 -0.5,0.225 -0.5,0.5 0,0.275 0.225,0.5 0.5,0.5 0.275,0 0.5,-0.225 0.5,-0.5 z m -5,-3 c 0,-0.275 -0.225,-0.5 -0.5,-0.5 -0.275,0 -0.5,0.225 -0.5,0.5 0,0.275 0.225,0.5 0.5,0.5 0.275,0 0.5,-0.225 0.5,-0.5 z m -4.999998,-3 c 0,-0.275 -0.225,-0.5 -0.5,-0.5 -0.275,0 -0.5,0.225 -0.5,0.5 0,0.275 0.225,0.5 0.5,0.5 0.275,0 0.5,-0.225 0.5,-0.5 z m -5,-3 c 0,-0.275 -0.225,-0.5 -0.5,-0.5 -0.275,0 -0.5,0.225 -0.5,0.5 0,0.275 0.225,0.5 0.5,0.5 0.275,0 0.5,-0.225 0.5,-0.5 z m -3,-2 c 0,-0.275 -0.225,-0.5 -0.5,-0.5 -0.275,0 -0.5,0.225 -0.5,0.5 0,0.275 0.225,0.5 0.5,0.5 0.275,0 0.5,-0.225 0.5,-0.5 z m -66.9999996,-4.94098 c 0,-0.24254 -0.51953,-0.76207 -1.15451,-1.15451 -0.7153,-0.44208 -0.88306,-0.27432 -0.44098,0.44098 0.71244,1.15275 1.59549,1.54767 1.59549,0.71353 z m -4.0000004,-3.05902 c 0,-0.275 -0.225,-0.5 -0.5,-0.5 -0.275,0 -0.5,0.225 -0.5,0.5 0,0.275 0.225,0.5 0.5,0.5 0.275,0 0.5,-0.225 0.5,-0.5 z m -9,-5.94098 c 0,-0.24254 -0.51953,-0.76207 -1.15451,-1.15451 -0.7153,-0.44208 -0.88306,-0.27432 -0.44098,0.44098 0.71244,1.15275 1.59549,1.54767 1.59549,0.71353 z m -6,-4.05902 c 0,-0.275 -0.225,-0.5 -0.5,-0.5 -0.275,0 -0.5,0.225 -0.5,0.5 0,0.275 0.225,0.5 0.5,0.5 0.275,0 0.5,-0.225 0.5,-0.5 z m -3,-2 c 0,-0.275 -0.225,-0.5 -0.5,-0.5 -0.275,0 -0.5,0.225 -0.5,0.5 0,0.275 0.225,0.5 0.5,0.5 0.275,0 0.5,-0.225 0.5,-0.5 z m -3,-2 c 0,-0.275 -0.225,-0.5 -0.5,-0.5 -0.275,0 -0.5,0.225 -0.5,0.5 0,0.275 0.225,0.5 0.5,0.5 0.275,0 0.5,-0.225 0.5,-0.5 z m -5,-3 c 0,-0.275 -0.225,-0.5 -0.5,-0.5 -0.275,0 -0.5,0.225 -0.5,0.5 0,0.275 0.225,0.5 0.5,0.5 0.275,0 0.5,-0.225 0.5,-0.5 z m -3,-2 c 0,-0.275 -0.225,-0.5 -0.5,-0.5 -0.275,0 -0.5,0.225 -0.5,0.5 0,0.275 0.225,0.5 0.5,0.5 0.275,0 0.5,-0.225 0.5,-0.5 z m -2,-1 c 0,-0.275 -0.225,-0.5 -0.5,-0.5 -0.275,0 -0.5,0.225 -0.5,0.5 0,0.275 0.225,0.5 0.5,0.5 0.275,0 0.5,-0.225 0.5,-0.5 z m -5,-3 c 0,-0.275 -0.225,-0.5 -0.5,-0.5 -0.275,0 -0.5,0.225 -0.5,0.5 0,0.275 0.225,0.5 0.5,0.5 0.275,0 0.5,-0.225 0.5,-0.5 z m -2,-1 c 0,-0.275 -0.225,-0.5 -0.5,-0.5 -0.275,0 -0.5,0.225 -0.5,0.5 0,0.275 0.225,0.5 0.5,0.5 0.275,0 0.5,-0.225 0.5,-0.5 z m -5,-3 c 0,-0.275 -0.225,-0.5 -0.5,-0.5 -0.275,0 -0.5,0.225 -0.5,0.5 0,0.275 0.225,0.5 0.5,0.5 0.275,0 0.5,-0.225 0.5,-0.5 z m -2,-1 c 0,-0.275 -0.225,-0.5 -0.5,-0.5 -0.275,0 -0.5,0.225 -0.5,0.5 0,0.275 0.225,0.5 0.5,0.5 0.275,0 0.5,-0.225 0.5,-0.5 z m -2,-1 c 0,-0.275 -0.225,-0.5 -0.5,-0.5 -0.275,0 -0.5,0.225 -0.5,0.5 0,0.275 0.225,0.5 0.5,0.5 0.275,0 0.5,-0.225 0.5,-0.5 z m -2,-1 c 0,-0.275 -0.225,-0.5 -0.5,-0.5 -0.275,0 -0.5,0.225 -0.5,0.5 0,0.275 0.225,0.5 0.5,0.5 0.275,0 0.5,-0.225 0.5,-0.5 z m -7,-4 c 0,-0.275 -0.225,-0.5 -0.5,-0.5 -0.275,0 -0.5,0.225 -0.5,0.5 0,0.275 0.225,0.5 0.5,0.5 0.275,0 0.5,-0.225 0.5,-0.5 z m 9,-11 c 1.86578,-1.925 3.16733,-3.5 2.89233,-3.5 -0.275,0 -2.02655,1.575 -3.89233,3.5 -1.86578,1.925 -3.16733,3.5 -2.89233,3.5 0.275,0 2.02655,-1.575 3.89233,-3.5 z m 14.5,-19.5 c 0.33992,-0.55 0.39303,-1 0.11803,-1 -0.275,0 -0.77811,0.45 -1.11803,1 -0.33992,0.55 -0.39303,1 -0.11803,1 0.275,0 0.77811,-0.45 1.11803,-1 z m 2.5,-4.5 c 0,-0.275 -0.225,-0.5 -0.5,-0.5 -0.275,0 -0.5,0.225 -0.5,0.5 0,0.275 0.225,0.5 0.5,0.5 0.275,0 0.5,-0.225 0.5,-0.5 z m 1,-2 c 0,-0.275 -0.225,-0.5 -0.5,-0.5 -0.275,0 -0.5,0.225 -0.5,0.5 0,0.275 0.225,0.5 0.5,0.5 0.275,0 0.5,-0.225 0.5,-0.5 z"
       id="path5745"
       inkscape:connector-curvature="0" />
  </g>
</svg>
